<svg width="422" height="98" viewBox="0 0 422 98" fill="none" xmlns="http://www.w3.org/2000/svg">
<mask id="path-1-outside-1_2001_77" maskUnits="userSpaceOnUse" x="-0.919983" y="-0.759766" width="423" height="98" fill="black">
<rect fill="white" x="-0.919983" y="-0.759766" width="423" height="98"/>
<path d="M82.408 29.8002C82.408 35.2402 80.488 39.9442 76.648 43.9122C72.808 47.8162 67.208 50.6322 59.848 52.3602C63.816 53.4482 66.824 55.2402 68.872 57.7362C70.92 60.1682 71.944 62.9842 71.944 66.1842C71.944 71.2402 70.344 75.6242 67.144 79.3362C64.008 83.0482 59.4 85.9282 53.32 87.9762C47.24 89.9602 39.912 90.9522 31.336 90.9522C28.136 90.9522 25.576 90.8562 23.656 90.6642C23.592 92.4562 22.824 93.8002 21.352 94.6962C19.88 95.5922 17.992 96.0402 15.688 96.0402C13.384 96.0402 11.784 95.5282 10.888 94.5042C10.056 93.4802 9.70402 91.9762 9.83202 89.9922C10.408 81.0322 11.528 71.6562 13.192 61.8642C14.856 52.0082 16.968 42.5042 19.528 33.3522C19.976 31.7522 20.872 30.6322 22.216 29.9922C23.56 29.3522 25.32 29.0322 27.496 29.0322C31.4 29.0322 33.352 30.1202 33.352 32.2962C33.352 33.1922 33.16 34.2162 32.776 35.3682C31.112 40.3602 29.448 47.1442 27.784 55.7202C26.12 64.2322 24.936 72.3602 24.232 80.1042C27.304 80.3602 29.8 80.4882 31.72 80.4882C40.68 80.4882 47.24 79.2082 51.4 76.6482C55.624 74.0242 57.736 70.6962 57.736 66.6642C57.736 63.8482 56.52 61.4802 54.088 59.5602C51.72 57.6402 47.72 56.5842 42.088 56.3922C40.808 56.3282 39.912 56.0082 39.4 55.4322C38.888 54.8562 38.632 53.9282 38.632 52.6482C38.632 50.7922 39.016 49.2882 39.784 48.1362C40.552 46.9842 41.96 46.3762 44.008 46.3122C48.552 46.1842 52.648 45.5122 56.296 44.2962C60.008 43.0802 62.92 41.3842 65.032 39.2082C67.144 36.9682 68.2 34.3762 68.2 31.4322C68.2 27.7202 66.376 24.8082 62.728 22.6962C59.08 20.5202 53.48 19.4322 45.928 19.4322C39.08 19.4322 32.456 20.3282 26.056 22.1202C19.656 23.8482 14.216 26.0562 9.73602 28.7442C7.68802 29.9602 5.96002 30.5682 4.55202 30.5682C3.40002 30.5682 2.50402 30.1842 1.86402 29.4162C1.28802 28.5842 1.00002 27.5602 1.00002 26.3442C1.00002 24.7442 1.32002 23.3682 1.96002 22.2162C2.66402 21.0642 4.29602 19.7522 6.85602 18.2802C12.232 15.2082 18.536 12.8082 25.768 11.0802C33 9.35223 40.392 8.48823 47.944 8.48823C59.528 8.48823 68.168 10.4402 73.864 14.3442C79.56 18.2482 82.408 23.4002 82.408 29.8002ZM91.0585 91.7202C87.0905 91.7202 83.9225 90.2802 81.5545 87.4002C79.1865 84.5202 78.0025 80.7442 78.0025 76.0722C78.0025 70.9522 79.1865 66.1202 81.5545 61.5762C83.9225 56.9682 87.0585 53.2882 90.9625 50.5362C94.9305 47.7202 99.1225 46.3122 103.539 46.3122C104.947 46.3122 105.875 46.6002 106.323 47.1762C106.835 47.6882 107.251 48.6482 107.571 50.0562C108.915 49.8002 110.323 49.6722 111.795 49.6722C114.931 49.6722 116.499 50.7922 116.499 53.0322C116.499 54.3762 116.019 57.5762 115.059 62.6322C113.587 69.9922 112.851 75.1122 112.851 77.9922C112.851 78.9522 113.075 79.7202 113.523 80.2962C114.035 80.8722 114.675 81.1602 115.443 81.1602C116.659 81.1602 118.131 80.3922 119.859 78.8562C121.587 77.2562 123.923 74.6962 126.867 71.1762C127.635 70.2802 128.499 69.8322 129.459 69.8322C130.291 69.8322 130.931 70.2162 131.379 70.9842C131.891 71.7522 132.147 72.8082 132.147 74.1522C132.147 76.7122 131.539 78.6962 130.323 80.1042C127.699 83.3682 124.915 86.1202 121.971 88.3602C119.027 90.6002 116.179 91.7202 113.427 91.7202C111.315 91.7202 109.363 91.0162 107.571 89.6082C105.843 88.1362 104.531 86.1522 103.635 83.6562C100.307 89.0322 96.1145 91.7202 91.0585 91.7202ZM94.5145 82.0242C95.9225 82.0242 97.2665 81.1922 98.5465 79.5282C99.8265 77.8642 100.755 75.6562 101.331 72.9042L104.883 55.2402C102.195 55.3042 99.6985 56.3282 97.3945 58.3122C95.1545 60.2322 93.3625 62.7922 92.0185 65.9922C90.6745 69.1922 90.0025 72.5842 90.0025 76.1682C90.0025 78.1522 90.3865 79.6242 91.1545 80.5842C91.9865 81.5442 93.1065 82.0242 94.5145 82.0242ZM142.68 91.7202C136.408 91.7202 131.512 89.9602 127.992 86.4402C124.536 82.8562 122.808 78.1522 122.808 72.3282C122.808 67.1442 123.832 62.6002 125.88 58.6962C127.928 54.7922 130.584 51.7842 133.848 49.6722C137.112 47.5602 140.536 46.5042 144.12 46.5042C147.64 46.5042 150.36 47.5602 152.28 49.6722C154.264 51.7202 155.256 54.3762 155.256 57.6402C155.256 60.3282 154.648 62.6002 153.432 64.4562C152.28 66.3122 150.744 67.2402 148.824 67.2402C147.608 67.2402 146.616 66.9522 145.848 66.3762C145.144 65.8002 144.792 65.0002 144.792 63.9762C144.792 63.5282 144.856 63.0162 144.984 62.4402C145.112 61.8642 145.208 61.4482 145.272 61.1922C145.592 60.2322 145.752 59.3362 145.752 58.5042C145.752 57.6722 145.528 57.0322 145.08 56.5842C144.696 56.1362 144.12 55.9122 143.352 55.9122C141.88 55.9122 140.504 56.5842 139.224 57.9282C137.944 59.2082 136.92 60.9682 136.152 63.2082C135.384 65.4482 135 67.9122 135 70.6002C135 78.0242 138.232 81.7362 144.696 81.7362C147.32 81.7362 150.136 80.8722 153.144 79.1442C156.216 77.3522 159.224 74.6962 162.168 71.1762C162.936 70.2802 163.8 69.8322 164.76 69.8322C165.592 69.8322 166.232 70.2162 166.68 70.9842C167.192 71.7522 167.448 72.8082 167.448 74.1522C167.448 76.5842 166.84 78.5682 165.624 80.1042C162.616 83.8162 159 86.6962 154.776 88.7442C150.616 90.7282 146.584 91.7202 142.68 91.7202ZM215.176 69.8322C216.008 69.8322 216.648 70.2162 217.096 70.9842C217.608 71.7522 217.864 72.8082 217.864 74.1522C217.864 76.7122 217.256 78.6962 216.04 80.1042C213.16 83.6242 210.248 86.4402 207.304 88.5522C204.36 90.6642 200.872 91.7202 196.84 91.7202C191.912 91.7202 187.944 90.3122 184.936 87.4962C181.928 84.6802 180.424 80.9362 180.424 76.2642C180.424 73.7682 181.704 71.9762 184.264 70.8882C187.08 69.6722 189.096 68.3922 190.312 67.0482C191.528 65.6402 192.136 63.9442 192.136 61.9602C192.136 60.8082 191.88 59.9442 191.368 59.3682C190.92 58.7922 190.344 58.5042 189.64 58.5042C187.912 58.5042 185.992 59.7522 183.88 62.2482C181.832 64.7442 179.912 67.9762 178.12 71.9442C176.328 75.8482 174.92 79.8802 173.896 84.0402C173.192 87.0482 172.36 89.0962 171.4 90.1842C170.504 91.2082 169.064 91.7202 167.08 91.7202C165.096 91.7202 163.624 91.0162 162.664 89.6082C161.768 88.1362 161.16 85.8962 160.84 82.8882C160.52 79.8802 160.36 75.4642 160.36 69.6402C160.36 59.7842 161.352 49.5122 163.336 38.8242C165.384 28.1362 168.36 19.1762 172.264 11.9442C176.232 4.64823 180.968 1.00023 186.472 1.00023C189.416 1.00023 191.784 2.28023 193.576 4.84023C195.432 7.33623 196.36 10.6002 196.36 14.6322C196.36 21.0962 194.472 27.8162 190.696 34.7922C186.92 41.7042 180.776 49.8002 172.264 59.0802C172.072 62.4082 171.976 65.8322 171.976 69.3522C175.048 61.3522 178.568 55.5602 182.536 51.9762C186.504 48.3282 190.216 46.5042 193.672 46.5042C196.872 46.5042 199.432 47.5922 201.352 49.7682C203.336 51.9442 204.328 54.6322 204.328 57.8322C204.328 61.3522 203.432 64.5842 201.64 67.5282C199.848 70.4722 196.776 73.0962 192.424 75.4002C192.68 77.1282 193.448 78.5362 194.728 79.6242C196.072 80.6482 197.672 81.1602 199.528 81.1602C201.512 81.1602 203.432 80.3922 205.288 78.8562C207.144 77.3202 209.576 74.7602 212.584 71.1762C213.352 70.2802 214.216 69.8322 215.176 69.8322ZM184.456 10.5042C183.304 10.5042 182.024 12.1682 180.616 15.4962C179.208 18.7602 177.832 23.2082 176.488 28.8402C175.208 34.4082 174.152 40.4882 173.32 47.0802C177.288 42.4082 180.552 37.3202 183.112 31.8162C185.736 26.3122 187.048 21.3202 187.048 16.8402C187.048 14.7922 186.824 13.2242 186.376 12.1362C185.928 11.0482 185.288 10.5042 184.456 10.5042ZM256.785 69.8322C257.617 69.8322 258.257 70.2162 258.705 70.9842C259.217 71.7522 259.473 72.8082 259.473 74.1522C259.473 76.7122 258.865 78.6962 257.649 80.1042C254.897 83.4962 251.889 86.2802 248.625 88.4562C245.361 90.6322 241.617 91.7202 237.393 91.7202C224.337 91.7202 217.809 82.5362 217.809 64.1682C217.809 61.3522 217.905 58.5042 218.097 55.6242H214.353C212.433 55.6242 211.121 55.2722 210.417 54.5682C209.777 53.8642 209.457 52.7442 209.457 51.2082C209.457 47.6242 210.897 45.8322 213.777 45.8322H219.249C220.337 38.7922 222.001 32.3602 224.241 26.5362C226.481 20.7122 229.169 16.0722 232.305 12.6162C235.505 9.16023 238.929 7.43223 242.577 7.43223C245.265 7.43223 247.377 8.61623 248.913 10.9842C250.449 13.3522 251.217 16.3282 251.217 19.9122C251.217 29.8322 247.057 38.4722 238.737 45.8322H249.489C250.513 45.8322 251.249 46.0562 251.697 46.5042C252.145 46.9522 252.369 47.7842 252.369 49.0002C252.369 53.4162 248.753 55.6242 241.521 55.6242H229.809C229.681 58.8242 229.617 61.3202 229.617 63.1122C229.617 69.7682 230.385 74.4402 231.921 77.1282C233.521 79.8162 236.017 81.1602 239.409 81.1602C242.161 81.1602 244.593 80.3282 246.705 78.6642C248.817 77.0002 251.313 74.5042 254.193 71.1762C254.961 70.2802 255.825 69.8322 256.785 69.8322ZM239.985 16.6482C239.025 16.6482 237.937 17.8642 236.721 20.2962C235.569 22.6642 234.449 25.9922 233.361 30.2802C232.337 34.5042 231.473 39.2082 230.769 44.3922C234.545 41.1282 237.361 37.4802 239.217 33.4482C241.137 29.3522 242.097 25.6402 242.097 22.3122C242.097 18.5362 241.393 16.6482 239.985 16.6482ZM258.473 91.7202C256.041 91.7202 254.313 90.4402 253.289 87.8802C252.329 85.3202 251.849 81.2242 251.849 75.5922C251.849 67.2722 253.033 59.3682 255.401 51.8802C255.977 50.0242 256.905 48.6802 258.185 47.8482C259.529 46.9522 261.385 46.5042 263.753 46.5042C265.033 46.5042 265.929 46.6642 266.441 46.9842C266.953 47.3042 267.209 47.9122 267.209 48.8082C267.209 49.8322 266.729 52.1362 265.769 55.7202C265.129 58.2802 264.617 60.5202 264.233 62.4402C263.849 64.3602 263.529 66.7282 263.273 69.5442C265.385 64.0402 267.753 59.5602 270.377 56.1042C273.001 52.6482 275.561 50.1842 278.057 48.7122C280.617 47.2402 282.953 46.5042 285.065 46.5042C289.225 46.5042 291.305 48.5842 291.305 52.7442C291.305 53.5762 291.017 55.5922 290.441 58.7922C289.929 61.3522 289.673 62.9522 289.673 63.5922C289.673 65.8322 290.473 66.9522 292.073 66.9522C293.865 66.9522 296.169 65.5442 298.985 62.7282C299.817 61.8962 300.681 61.4802 301.577 61.4802C302.409 61.4802 303.049 61.8642 303.497 62.6322C304.009 63.3362 304.265 64.2962 304.265 65.5122C304.265 67.8802 303.625 69.7362 302.345 71.0802C300.553 72.9362 298.441 74.5362 296.009 75.8802C293.641 77.1602 291.113 77.8002 288.425 77.8002C285.033 77.8002 282.441 76.9362 280.649 75.2082C278.921 73.4802 278.057 71.1442 278.057 68.2002C278.057 67.2402 278.153 66.2802 278.345 65.3202C278.473 64.0402 278.537 63.1762 278.537 62.7282C278.537 61.7042 278.185 61.1922 277.481 61.1922C276.521 61.1922 275.241 62.2802 273.641 64.4562C272.105 66.5682 270.569 69.3842 269.033 72.9042C267.497 76.4242 266.249 80.1362 265.289 84.0402C264.585 87.0482 263.753 89.0962 262.793 90.1842C261.897 91.2082 260.457 91.7202 258.473 91.7202ZM307.152 91.7202C303.184 91.7202 300.016 90.2802 297.648 87.4002C295.28 84.5202 294.096 80.7442 294.096 76.0722C294.096 70.9522 295.28 66.1202 297.648 61.5762C300.016 56.9682 303.152 53.2882 307.056 50.5362C311.024 47.7202 315.216 46.3122 319.632 46.3122C321.04 46.3122 321.968 46.6002 322.416 47.1762C322.928 47.6882 323.344 48.6482 323.664 50.0562C325.008 49.8002 326.416 49.6722 327.888 49.6722C331.024 49.6722 332.592 50.7922 332.592 53.0322C332.592 54.3762 332.112 57.5762 331.152 62.6322C329.68 69.9922 328.944 75.1122 328.944 77.9922C328.944 78.9522 329.168 79.7202 329.616 80.2962C330.128 80.8722 330.768 81.1602 331.536 81.1602C332.752 81.1602 334.224 80.3922 335.952 78.8562C337.68 77.2562 340.016 74.6962 342.96 71.1762C343.728 70.2802 344.592 69.8322 345.552 69.8322C346.384 69.8322 347.024 70.2162 347.472 70.9842C347.984 71.7522 348.24 72.8082 348.24 74.1522C348.24 76.7122 347.632 78.6962 346.416 80.1042C343.792 83.3682 341.008 86.1202 338.064 88.3602C335.12 90.6002 332.272 91.7202 329.52 91.7202C327.408 91.7202 325.456 91.0162 323.664 89.6082C321.936 88.1362 320.624 86.1522 319.728 83.6562C316.4 89.0322 312.208 91.7202 307.152 91.7202ZM310.608 82.0242C312.016 82.0242 313.36 81.1922 314.64 79.5282C315.92 77.8642 316.848 75.6562 317.424 72.9042L320.976 55.2402C318.288 55.3042 315.792 56.3282 313.488 58.3122C311.248 60.2322 309.456 62.7922 308.112 65.9922C306.768 69.1922 306.096 72.5842 306.096 76.1682C306.096 78.1522 306.48 79.6242 307.248 80.5842C308.08 81.5442 309.2 82.0242 310.608 82.0242ZM358.774 91.7202C352.502 91.7202 347.606 89.9602 344.086 86.4402C340.63 82.8562 338.902 78.1522 338.902 72.3282C338.902 67.1442 339.926 62.6002 341.974 58.6962C344.022 54.7922 346.678 51.7842 349.942 49.6722C353.206 47.5602 356.63 46.5042 360.214 46.5042C363.734 46.5042 366.454 47.5602 368.374 49.6722C370.358 51.7202 371.35 54.3762 371.35 57.6402C371.35 60.3282 370.742 62.6002 369.526 64.4562C368.374 66.3122 366.838 67.2402 364.918 67.2402C363.702 67.2402 362.71 66.9522 361.942 66.3762C361.238 65.8002 360.886 65.0002 360.886 63.9762C360.886 63.5282 360.95 63.0162 361.078 62.4402C361.206 61.8642 361.302 61.4482 361.366 61.1922C361.686 60.2322 361.846 59.3362 361.846 58.5042C361.846 57.6722 361.622 57.0322 361.174 56.5842C360.79 56.1362 360.214 55.9122 359.446 55.9122C357.974 55.9122 356.598 56.5842 355.318 57.9282C354.038 59.2082 353.014 60.9682 352.246 63.2082C351.478 65.4482 351.094 67.9122 351.094 70.6002C351.094 78.0242 354.326 81.7362 360.79 81.7362C363.414 81.7362 366.23 80.8722 369.238 79.1442C372.31 77.3522 375.318 74.6962 378.262 71.1762C379.03 70.2802 379.894 69.8322 380.854 69.8322C381.686 69.8322 382.326 70.2162 382.774 70.9842C383.286 71.7522 383.542 72.8082 383.542 74.1522C383.542 76.5842 382.934 78.5682 381.718 80.1042C378.71 83.8162 375.094 86.6962 370.87 88.7442C366.71 90.7282 362.678 91.7202 358.774 91.7202ZM416.582 81.2562C419.206 81.7682 420.518 83.2082 420.518 85.5762C420.518 87.1762 419.782 88.6162 418.31 89.8962C416.902 91.1122 414.854 91.7202 412.166 91.7202C407.558 91.7202 403.782 90.3122 400.838 87.4962C397.958 84.6162 396.518 80.8722 396.518 76.2642C396.518 73.7682 397.798 71.9762 400.358 70.8882C403.174 69.6722 405.19 68.3922 406.406 67.0482C407.622 65.6402 408.23 63.9442 408.23 61.9602C408.23 60.8082 407.974 59.9442 407.462 59.3682C407.014 58.7922 406.438 58.5042 405.734 58.5042C404.006 58.5042 402.086 59.7522 399.974 62.2482C397.926 64.7442 396.006 67.9762 394.214 71.9442C392.422 75.8482 391.014 79.8802 389.99 84.0402C389.286 87.0482 388.454 89.0962 387.494 90.1842C386.598 91.2082 385.158 91.7202 383.174 91.7202C381.19 91.7202 379.718 91.0162 378.758 89.6082C377.862 88.1362 377.254 85.8962 376.934 82.8882C376.614 79.8802 376.454 75.4642 376.454 69.6402C376.454 59.7842 377.446 49.5122 379.43 38.8242C381.478 28.1362 384.454 19.1762 388.358 11.9442C392.326 4.64823 397.062 1.00023 402.566 1.00023C405.51 1.00023 407.878 2.28023 409.67 4.84023C411.526 7.33623 412.454 10.6002 412.454 14.6322C412.454 21.0962 410.566 27.8162 406.79 34.7922C403.014 41.7042 396.87 49.8002 388.358 59.0802C388.166 62.4082 388.07 65.8322 388.07 69.3522C391.142 61.3522 394.662 55.5602 398.63 51.9762C402.598 48.3282 406.31 46.5042 409.766 46.5042C412.966 46.5042 415.526 47.5922 417.446 49.7682C419.43 51.9442 420.422 54.6322 420.422 57.8322C420.422 61.3522 419.526 64.5842 417.734 67.5282C415.942 70.4722 412.87 73.0962 408.518 75.4002C408.902 77.3202 409.67 78.6642 410.822 79.4322C412.038 80.1362 413.958 80.7442 416.582 81.2562ZM400.55 10.5042C399.398 10.5042 398.118 12.1682 396.71 15.4962C395.302 18.7602 393.926 23.2082 392.582 28.8402C391.302 34.4082 390.246 40.4882 389.414 47.0802C393.382 42.4082 396.646 37.3202 399.206 31.8162C401.83 26.3122 403.142 21.3202 403.142 16.8402C403.142 14.7922 402.918 13.2242 402.47 12.1362C402.022 11.0482 401.382 10.5042 400.55 10.5042Z"/>
</mask>
<path d="M82.408 29.8002C82.408 35.2402 80.488 39.9442 76.648 43.9122C72.808 47.8162 67.208 50.6322 59.848 52.3602C63.816 53.4482 66.824 55.2402 68.872 57.7362C70.92 60.1682 71.944 62.9842 71.944 66.1842C71.944 71.2402 70.344 75.6242 67.144 79.3362C64.008 83.0482 59.4 85.9282 53.32 87.9762C47.24 89.9602 39.912 90.9522 31.336 90.9522C28.136 90.9522 25.576 90.8562 23.656 90.6642C23.592 92.4562 22.824 93.8002 21.352 94.6962C19.88 95.5922 17.992 96.0402 15.688 96.0402C13.384 96.0402 11.784 95.5282 10.888 94.5042C10.056 93.4802 9.70402 91.9762 9.83202 89.9922C10.408 81.0322 11.528 71.6562 13.192 61.8642C14.856 52.0082 16.968 42.5042 19.528 33.3522C19.976 31.7522 20.872 30.6322 22.216 29.9922C23.56 29.3522 25.32 29.0322 27.496 29.0322C31.4 29.0322 33.352 30.1202 33.352 32.2962C33.352 33.1922 33.16 34.2162 32.776 35.3682C31.112 40.3602 29.448 47.1442 27.784 55.7202C26.12 64.2322 24.936 72.3602 24.232 80.1042C27.304 80.3602 29.8 80.4882 31.72 80.4882C40.68 80.4882 47.24 79.2082 51.4 76.6482C55.624 74.0242 57.736 70.6962 57.736 66.6642C57.736 63.8482 56.52 61.4802 54.088 59.5602C51.72 57.6402 47.72 56.5842 42.088 56.3922C40.808 56.3282 39.912 56.0082 39.4 55.4322C38.888 54.8562 38.632 53.9282 38.632 52.6482C38.632 50.7922 39.016 49.2882 39.784 48.1362C40.552 46.9842 41.96 46.3762 44.008 46.3122C48.552 46.1842 52.648 45.5122 56.296 44.2962C60.008 43.0802 62.92 41.3842 65.032 39.2082C67.144 36.9682 68.2 34.3762 68.2 31.4322C68.2 27.7202 66.376 24.8082 62.728 22.6962C59.08 20.5202 53.48 19.4322 45.928 19.4322C39.08 19.4322 32.456 20.3282 26.056 22.1202C19.656 23.8482 14.216 26.0562 9.73602 28.7442C7.68802 29.9602 5.96002 30.5682 4.55202 30.5682C3.40002 30.5682 2.50402 30.1842 1.86402 29.4162C1.28802 28.5842 1.00002 27.5602 1.00002 26.3442C1.00002 24.7442 1.32002 23.3682 1.96002 22.2162C2.66402 21.0642 4.29602 19.7522 6.85602 18.2802C12.232 15.2082 18.536 12.8082 25.768 11.0802C33 9.35223 40.392 8.48823 47.944 8.48823C59.528 8.48823 68.168 10.4402 73.864 14.3442C79.56 18.2482 82.408 23.4002 82.408 29.8002ZM91.0585 91.7202C87.0905 91.7202 83.9225 90.2802 81.5545 87.4002C79.1865 84.5202 78.0025 80.7442 78.0025 76.0722C78.0025 70.9522 79.1865 66.1202 81.5545 61.5762C83.9225 56.9682 87.0585 53.2882 90.9625 50.5362C94.9305 47.7202 99.1225 46.3122 103.539 46.3122C104.947 46.3122 105.875 46.6002 106.323 47.1762C106.835 47.6882 107.251 48.6482 107.571 50.0562C108.915 49.8002 110.323 49.6722 111.795 49.6722C114.931 49.6722 116.499 50.7922 116.499 53.0322C116.499 54.3762 116.019 57.5762 115.059 62.6322C113.587 69.9922 112.851 75.1122 112.851 77.9922C112.851 78.9522 113.075 79.7202 113.523 80.2962C114.035 80.8722 114.675 81.1602 115.443 81.1602C116.659 81.1602 118.131 80.3922 119.859 78.8562C121.587 77.2562 123.923 74.6962 126.867 71.1762C127.635 70.2802 128.499 69.8322 129.459 69.8322C130.291 69.8322 130.931 70.2162 131.379 70.9842C131.891 71.7522 132.147 72.8082 132.147 74.1522C132.147 76.7122 131.539 78.6962 130.323 80.1042C127.699 83.3682 124.915 86.1202 121.971 88.3602C119.027 90.6002 116.179 91.7202 113.427 91.7202C111.315 91.7202 109.363 91.0162 107.571 89.6082C105.843 88.1362 104.531 86.1522 103.635 83.6562C100.307 89.0322 96.1145 91.7202 91.0585 91.7202ZM94.5145 82.0242C95.9225 82.0242 97.2665 81.1922 98.5465 79.5282C99.8265 77.8642 100.755 75.6562 101.331 72.9042L104.883 55.2402C102.195 55.3042 99.6985 56.3282 97.3945 58.3122C95.1545 60.2322 93.3625 62.7922 92.0185 65.9922C90.6745 69.1922 90.0025 72.5842 90.0025 76.1682C90.0025 78.1522 90.3865 79.6242 91.1545 80.5842C91.9865 81.5442 93.1065 82.0242 94.5145 82.0242ZM142.68 91.7202C136.408 91.7202 131.512 89.9602 127.992 86.4402C124.536 82.8562 122.808 78.1522 122.808 72.3282C122.808 67.1442 123.832 62.6002 125.88 58.6962C127.928 54.7922 130.584 51.7842 133.848 49.6722C137.112 47.5602 140.536 46.5042 144.12 46.5042C147.64 46.5042 150.36 47.5602 152.28 49.6722C154.264 51.7202 155.256 54.3762 155.256 57.6402C155.256 60.3282 154.648 62.6002 153.432 64.4562C152.28 66.3122 150.744 67.2402 148.824 67.2402C147.608 67.2402 146.616 66.9522 145.848 66.3762C145.144 65.8002 144.792 65.0002 144.792 63.9762C144.792 63.5282 144.856 63.0162 144.984 62.4402C145.112 61.8642 145.208 61.4482 145.272 61.1922C145.592 60.2322 145.752 59.3362 145.752 58.5042C145.752 57.6722 145.528 57.0322 145.08 56.5842C144.696 56.1362 144.12 55.9122 143.352 55.9122C141.88 55.9122 140.504 56.5842 139.224 57.9282C137.944 59.2082 136.92 60.9682 136.152 63.2082C135.384 65.4482 135 67.9122 135 70.6002C135 78.0242 138.232 81.7362 144.696 81.7362C147.32 81.7362 150.136 80.8722 153.144 79.1442C156.216 77.3522 159.224 74.6962 162.168 71.1762C162.936 70.2802 163.8 69.8322 164.76 69.8322C165.592 69.8322 166.232 70.2162 166.68 70.9842C167.192 71.7522 167.448 72.8082 167.448 74.1522C167.448 76.5842 166.84 78.5682 165.624 80.1042C162.616 83.8162 159 86.6962 154.776 88.7442C150.616 90.7282 146.584 91.7202 142.68 91.7202ZM215.176 69.8322C216.008 69.8322 216.648 70.2162 217.096 70.9842C217.608 71.7522 217.864 72.8082 217.864 74.1522C217.864 76.7122 217.256 78.6962 216.04 80.1042C213.16 83.6242 210.248 86.4402 207.304 88.5522C204.36 90.6642 200.872 91.7202 196.84 91.7202C191.912 91.7202 187.944 90.3122 184.936 87.4962C181.928 84.6802 180.424 80.9362 180.424 76.2642C180.424 73.7682 181.704 71.9762 184.264 70.8882C187.08 69.6722 189.096 68.3922 190.312 67.0482C191.528 65.6402 192.136 63.9442 192.136 61.9602C192.136 60.8082 191.88 59.9442 191.368 59.3682C190.92 58.7922 190.344 58.5042 189.64 58.5042C187.912 58.5042 185.992 59.7522 183.88 62.2482C181.832 64.7442 179.912 67.9762 178.12 71.9442C176.328 75.8482 174.92 79.8802 173.896 84.0402C173.192 87.0482 172.36 89.0962 171.4 90.1842C170.504 91.2082 169.064 91.7202 167.08 91.7202C165.096 91.7202 163.624 91.0162 162.664 89.6082C161.768 88.1362 161.16 85.8962 160.84 82.8882C160.52 79.8802 160.36 75.4642 160.36 69.6402C160.36 59.7842 161.352 49.5122 163.336 38.8242C165.384 28.1362 168.36 19.1762 172.264 11.9442C176.232 4.64823 180.968 1.00023 186.472 1.00023C189.416 1.00023 191.784 2.28023 193.576 4.84023C195.432 7.33623 196.36 10.6002 196.36 14.6322C196.36 21.0962 194.472 27.8162 190.696 34.7922C186.92 41.7042 180.776 49.8002 172.264 59.0802C172.072 62.4082 171.976 65.8322 171.976 69.3522C175.048 61.3522 178.568 55.5602 182.536 51.9762C186.504 48.3282 190.216 46.5042 193.672 46.5042C196.872 46.5042 199.432 47.5922 201.352 49.7682C203.336 51.9442 204.328 54.6322 204.328 57.8322C204.328 61.3522 203.432 64.5842 201.64 67.5282C199.848 70.4722 196.776 73.0962 192.424 75.4002C192.68 77.1282 193.448 78.5362 194.728 79.6242C196.072 80.6482 197.672 81.1602 199.528 81.1602C201.512 81.1602 203.432 80.3922 205.288 78.8562C207.144 77.3202 209.576 74.7602 212.584 71.1762C213.352 70.2802 214.216 69.8322 215.176 69.8322ZM184.456 10.5042C183.304 10.5042 182.024 12.1682 180.616 15.4962C179.208 18.7602 177.832 23.2082 176.488 28.8402C175.208 34.4082 174.152 40.4882 173.32 47.0802C177.288 42.4082 180.552 37.3202 183.112 31.8162C185.736 26.3122 187.048 21.3202 187.048 16.8402C187.048 14.7922 186.824 13.2242 186.376 12.1362C185.928 11.0482 185.288 10.5042 184.456 10.5042ZM256.785 69.8322C257.617 69.8322 258.257 70.2162 258.705 70.9842C259.217 71.7522 259.473 72.8082 259.473 74.1522C259.473 76.7122 258.865 78.6962 257.649 80.1042C254.897 83.4962 251.889 86.2802 248.625 88.4562C245.361 90.6322 241.617 91.7202 237.393 91.7202C224.337 91.7202 217.809 82.5362 217.809 64.1682C217.809 61.3522 217.905 58.5042 218.097 55.6242H214.353C212.433 55.6242 211.121 55.2722 210.417 54.5682C209.777 53.8642 209.457 52.7442 209.457 51.2082C209.457 47.6242 210.897 45.8322 213.777 45.8322H219.249C220.337 38.7922 222.001 32.3602 224.241 26.5362C226.481 20.7122 229.169 16.0722 232.305 12.6162C235.505 9.16023 238.929 7.43223 242.577 7.43223C245.265 7.43223 247.377 8.61623 248.913 10.9842C250.449 13.3522 251.217 16.3282 251.217 19.9122C251.217 29.8322 247.057 38.4722 238.737 45.8322H249.489C250.513 45.8322 251.249 46.0562 251.697 46.5042C252.145 46.9522 252.369 47.7842 252.369 49.0002C252.369 53.4162 248.753 55.6242 241.521 55.6242H229.809C229.681 58.8242 229.617 61.3202 229.617 63.1122C229.617 69.7682 230.385 74.4402 231.921 77.1282C233.521 79.8162 236.017 81.1602 239.409 81.1602C242.161 81.1602 244.593 80.3282 246.705 78.6642C248.817 77.0002 251.313 74.5042 254.193 71.1762C254.961 70.2802 255.825 69.8322 256.785 69.8322ZM239.985 16.6482C239.025 16.6482 237.937 17.8642 236.721 20.2962C235.569 22.6642 234.449 25.9922 233.361 30.2802C232.337 34.5042 231.473 39.2082 230.769 44.3922C234.545 41.1282 237.361 37.4802 239.217 33.4482C241.137 29.3522 242.097 25.6402 242.097 22.3122C242.097 18.5362 241.393 16.6482 239.985 16.6482ZM258.473 91.7202C256.041 91.7202 254.313 90.4402 253.289 87.8802C252.329 85.3202 251.849 81.2242 251.849 75.5922C251.849 67.2722 253.033 59.3682 255.401 51.8802C255.977 50.0242 256.905 48.6802 258.185 47.8482C259.529 46.9522 261.385 46.5042 263.753 46.5042C265.033 46.5042 265.929 46.6642 266.441 46.9842C266.953 47.3042 267.209 47.9122 267.209 48.8082C267.209 49.8322 266.729 52.1362 265.769 55.7202C265.129 58.2802 264.617 60.5202 264.233 62.4402C263.849 64.3602 263.529 66.7282 263.273 69.5442C265.385 64.0402 267.753 59.5602 270.377 56.1042C273.001 52.6482 275.561 50.1842 278.057 48.7122C280.617 47.2402 282.953 46.5042 285.065 46.5042C289.225 46.5042 291.305 48.5842 291.305 52.7442C291.305 53.5762 291.017 55.5922 290.441 58.7922C289.929 61.3522 289.673 62.9522 289.673 63.5922C289.673 65.8322 290.473 66.9522 292.073 66.9522C293.865 66.9522 296.169 65.5442 298.985 62.7282C299.817 61.8962 300.681 61.4802 301.577 61.4802C302.409 61.4802 303.049 61.8642 303.497 62.6322C304.009 63.3362 304.265 64.2962 304.265 65.5122C304.265 67.8802 303.625 69.7362 302.345 71.0802C300.553 72.9362 298.441 74.5362 296.009 75.8802C293.641 77.1602 291.113 77.8002 288.425 77.8002C285.033 77.8002 282.441 76.9362 280.649 75.2082C278.921 73.4802 278.057 71.1442 278.057 68.2002C278.057 67.2402 278.153 66.2802 278.345 65.3202C278.473 64.0402 278.537 63.1762 278.537 62.7282C278.537 61.7042 278.185 61.1922 277.481 61.1922C276.521 61.1922 275.241 62.2802 273.641 64.4562C272.105 66.5682 270.569 69.3842 269.033 72.9042C267.497 76.4242 266.249 80.1362 265.289 84.0402C264.585 87.0482 263.753 89.0962 262.793 90.1842C261.897 91.2082 260.457 91.7202 258.473 91.7202ZM307.152 91.7202C303.184 91.7202 300.016 90.2802 297.648 87.4002C295.28 84.5202 294.096 80.7442 294.096 76.0722C294.096 70.9522 295.28 66.1202 297.648 61.5762C300.016 56.9682 303.152 53.2882 307.056 50.5362C311.024 47.7202 315.216 46.3122 319.632 46.3122C321.04 46.3122 321.968 46.6002 322.416 47.1762C322.928 47.6882 323.344 48.6482 323.664 50.0562C325.008 49.8002 326.416 49.6722 327.888 49.6722C331.024 49.6722 332.592 50.7922 332.592 53.0322C332.592 54.3762 332.112 57.5762 331.152 62.6322C329.68 69.9922 328.944 75.1122 328.944 77.9922C328.944 78.9522 329.168 79.7202 329.616 80.2962C330.128 80.8722 330.768 81.1602 331.536 81.1602C332.752 81.1602 334.224 80.3922 335.952 78.8562C337.68 77.2562 340.016 74.6962 342.96 71.1762C343.728 70.2802 344.592 69.8322 345.552 69.8322C346.384 69.8322 347.024 70.2162 347.472 70.9842C347.984 71.7522 348.24 72.8082 348.24 74.1522C348.24 76.7122 347.632 78.6962 346.416 80.1042C343.792 83.3682 341.008 86.1202 338.064 88.3602C335.12 90.6002 332.272 91.7202 329.52 91.7202C327.408 91.7202 325.456 91.0162 323.664 89.6082C321.936 88.1362 320.624 86.1522 319.728 83.6562C316.4 89.0322 312.208 91.7202 307.152 91.7202ZM310.608 82.0242C312.016 82.0242 313.36 81.1922 314.64 79.5282C315.92 77.8642 316.848 75.6562 317.424 72.9042L320.976 55.2402C318.288 55.3042 315.792 56.3282 313.488 58.3122C311.248 60.2322 309.456 62.7922 308.112 65.9922C306.768 69.1922 306.096 72.5842 306.096 76.1682C306.096 78.1522 306.48 79.6242 307.248 80.5842C308.08 81.5442 309.2 82.0242 310.608 82.0242ZM358.774 91.7202C352.502 91.7202 347.606 89.9602 344.086 86.4402C340.63 82.8562 338.902 78.1522 338.902 72.3282C338.902 67.1442 339.926 62.6002 341.974 58.6962C344.022 54.7922 346.678 51.7842 349.942 49.6722C353.206 47.5602 356.63 46.5042 360.214 46.5042C363.734 46.5042 366.454 47.5602 368.374 49.6722C370.358 51.7202 371.35 54.3762 371.35 57.6402C371.35 60.3282 370.742 62.6002 369.526 64.4562C368.374 66.3122 366.838 67.2402 364.918 67.2402C363.702 67.2402 362.71 66.9522 361.942 66.3762C361.238 65.8002 360.886 65.0002 360.886 63.9762C360.886 63.5282 360.95 63.0162 361.078 62.4402C361.206 61.8642 361.302 61.4482 361.366 61.1922C361.686 60.2322 361.846 59.3362 361.846 58.5042C361.846 57.6722 361.622 57.0322 361.174 56.5842C360.79 56.1362 360.214 55.9122 359.446 55.9122C357.974 55.9122 356.598 56.5842 355.318 57.9282C354.038 59.2082 353.014 60.9682 352.246 63.2082C351.478 65.4482 351.094 67.9122 351.094 70.6002C351.094 78.0242 354.326 81.7362 360.79 81.7362C363.414 81.7362 366.23 80.8722 369.238 79.1442C372.31 77.3522 375.318 74.6962 378.262 71.1762C379.03 70.2802 379.894 69.8322 380.854 69.8322C381.686 69.8322 382.326 70.2162 382.774 70.9842C383.286 71.7522 383.542 72.8082 383.542 74.1522C383.542 76.5842 382.934 78.5682 381.718 80.1042C378.71 83.8162 375.094 86.6962 370.87 88.7442C366.71 90.7282 362.678 91.7202 358.774 91.7202ZM416.582 81.2562C419.206 81.7682 420.518 83.2082 420.518 85.5762C420.518 87.1762 419.782 88.6162 418.31 89.8962C416.902 91.1122 414.854 91.7202 412.166 91.7202C407.558 91.7202 403.782 90.3122 400.838 87.4962C397.958 84.6162 396.518 80.8722 396.518 76.2642C396.518 73.7682 397.798 71.9762 400.358 70.8882C403.174 69.6722 405.19 68.3922 406.406 67.0482C407.622 65.6402 408.23 63.9442 408.23 61.9602C408.23 60.8082 407.974 59.9442 407.462 59.3682C407.014 58.7922 406.438 58.5042 405.734 58.5042C404.006 58.5042 402.086 59.7522 399.974 62.2482C397.926 64.7442 396.006 67.9762 394.214 71.9442C392.422 75.8482 391.014 79.8802 389.99 84.0402C389.286 87.0482 388.454 89.0962 387.494 90.1842C386.598 91.2082 385.158 91.7202 383.174 91.7202C381.19 91.7202 379.718 91.0162 378.758 89.6082C377.862 88.1362 377.254 85.8962 376.934 82.8882C376.614 79.8802 376.454 75.4642 376.454 69.6402C376.454 59.7842 377.446 49.5122 379.43 38.8242C381.478 28.1362 384.454 19.1762 388.358 11.9442C392.326 4.64823 397.062 1.00023 402.566 1.00023C405.51 1.00023 407.878 2.28023 409.67 4.84023C411.526 7.33623 412.454 10.6002 412.454 14.6322C412.454 21.0962 410.566 27.8162 406.79 34.7922C403.014 41.7042 396.87 49.8002 388.358 59.0802C388.166 62.4082 388.07 65.8322 388.07 69.3522C391.142 61.3522 394.662 55.5602 398.63 51.9762C402.598 48.3282 406.31 46.5042 409.766 46.5042C412.966 46.5042 415.526 47.5922 417.446 49.7682C419.43 51.9442 420.422 54.6322 420.422 57.8322C420.422 61.3522 419.526 64.5842 417.734 67.5282C415.942 70.4722 412.87 73.0962 408.518 75.4002C408.902 77.3202 409.67 78.6642 410.822 79.4322C412.038 80.1362 413.958 80.7442 416.582 81.2562ZM400.55 10.5042C399.398 10.5042 398.118 12.1682 396.71 15.4962C395.302 18.7602 393.926 23.2082 392.582 28.8402C391.302 34.4082 390.246 40.4882 389.414 47.0802C393.382 42.4082 396.646 37.3202 399.206 31.8162C401.83 26.3122 403.142 21.3202 403.142 16.8402C403.142 14.7922 402.918 13.2242 402.47 12.1362C402.022 11.0482 401.382 10.5042 400.55 10.5042Z" fill="#0EA5E9"/>
<path d="M76.648 43.9122L77.361 44.6135L77.3666 44.6077L76.648 43.9122ZM59.848 52.3602L59.6194 51.3867L59.5836 53.3246L59.848 52.3602ZM68.872 57.7362L68.0989 58.3706L68.1071 58.3804L68.872 57.7362ZM67.144 79.3362L66.3866 78.6833L66.3801 78.6909L67.144 79.3362ZM53.32 87.9762L53.6302 88.9269L53.6392 88.9239L53.32 87.9762ZM23.656 90.6642L23.7555 89.6692L22.6947 89.5631L22.6567 90.6285L23.656 90.6642ZM21.352 94.6962L20.8321 93.842V93.842L21.352 94.6962ZM10.888 94.5042L10.1119 95.1348L10.1234 95.149L10.1354 95.1627L10.888 94.5042ZM9.83202 89.9922L10.8299 90.0566L10.83 90.0564L9.83202 89.9922ZM13.192 61.8642L14.1779 62.0318L14.1781 62.0307L13.192 61.8642ZM19.528 33.3522L18.5651 33.0826L18.565 33.0828L19.528 33.3522ZM22.216 29.9922L21.7861 29.0894V29.0894L22.216 29.9922ZM32.776 35.3682L31.8273 35.052V35.052L32.776 35.3682ZM27.784 55.7202L28.7654 55.9121L28.7657 55.9107L27.784 55.7202ZM24.232 80.1042L23.2361 80.0137L23.1449 81.0171L24.149 81.1008L24.232 80.1042ZM51.4 76.6482L51.9241 77.4999L51.9277 77.4977L51.4 76.6482ZM54.088 59.5602L53.4582 60.3371L53.4684 60.3451L54.088 59.5602ZM42.088 56.3922L42.0381 57.391L42.046 57.3914L42.0539 57.3917L42.088 56.3922ZM39.4 55.4322L38.6526 56.0966H38.6526L39.4 55.4322ZM39.784 48.1362L38.952 47.5815V47.5815L39.784 48.1362ZM44.008 46.3122L43.9799 45.3126L43.9768 45.3127L44.008 46.3122ZM56.296 44.2962L55.9847 43.3459L55.9798 43.3475L56.296 44.2962ZM65.032 39.2082L65.7496 39.9047L65.7546 39.8995L65.7596 39.8942L65.032 39.2082ZM62.728 22.6962L62.2157 23.5551L62.227 23.5617L62.728 22.6962ZM26.056 22.1202L26.3167 23.0857L26.3256 23.0832L26.056 22.1202ZM9.73602 28.7442L10.2466 29.6041L10.2505 29.6017L9.73602 28.7442ZM1.86402 29.4162L1.04183 29.9854L1.06723 30.0221L1.0958 30.0564L1.86402 29.4162ZM1.96002 22.2162L1.10674 21.6948L1.09593 21.7125L1.08586 21.7306L1.96002 22.2162ZM6.85602 18.2802L6.35988 17.412L6.35755 17.4133L6.85602 18.2802ZM25.768 11.0802L26.0004 12.0529V12.0529L25.768 11.0802ZM73.864 14.3442L74.4294 13.5194V13.5194L73.864 14.3442ZM82.408 29.8002H81.408C81.408 34.9764 79.592 39.4322 75.9294 43.2168L76.648 43.9122L77.3666 44.6077C81.3841 40.4563 83.408 35.5041 83.408 29.8002H82.408ZM76.648 43.9122L75.9351 43.211C72.2689 46.9382 66.8629 49.6861 59.6194 51.3867L59.848 52.3602L60.0766 53.3338C67.5531 51.5784 73.3471 48.6942 77.3609 44.6135L76.648 43.9122ZM59.848 52.3602L59.5836 53.3246C63.4068 54.3729 66.2142 56.0735 68.0989 58.3706L68.872 57.7362L69.6451 57.1019C67.4338 54.4069 64.2252 52.5235 60.1125 51.3958L59.848 52.3602ZM68.872 57.7362L68.1071 58.3804C70.0022 60.6308 70.944 63.2183 70.944 66.1842H71.944H72.944C72.944 62.7502 71.8378 59.7057 69.6369 57.0921L68.872 57.7362ZM71.944 66.1842H70.944C70.944 71.0088 69.4248 75.159 66.3866 78.6833L67.144 79.3362L67.9014 79.9892C71.2633 76.0894 72.944 71.4716 72.944 66.1842H71.944ZM67.144 79.3362L66.3801 78.6909C63.394 82.2255 58.9617 85.0207 53.0008 87.0286L53.32 87.9762L53.6392 88.9239C59.8383 86.8358 64.622 83.871 67.9079 79.9816L67.144 79.3362ZM53.32 87.9762L53.0098 87.0256C47.0575 88.9679 39.8402 89.9522 31.336 89.9522V90.9522V91.9522C39.9838 91.9522 47.4225 90.9526 53.6302 88.9269L53.32 87.9762ZM31.336 90.9522V89.9522C28.1507 89.9522 25.6281 89.8565 23.7555 89.6692L23.656 90.6642L23.5565 91.6593C25.524 91.856 28.1213 91.9522 31.336 91.9522V90.9522ZM23.656 90.6642L22.6567 90.6285C22.6041 92.1008 22.0031 93.1292 20.8321 93.842L21.352 94.6962L21.872 95.5504C23.645 94.4712 24.58 92.8117 24.6554 90.6999L23.656 90.6642ZM21.352 94.6962L20.8321 93.842C19.5611 94.6157 17.8686 95.0402 15.688 95.0402V96.0402V97.0402C18.1154 97.0402 20.199 96.5688 21.872 95.5504L21.352 94.6962ZM15.688 96.0402V95.0402C13.4807 95.0402 12.2492 94.5413 11.6406 93.8457L10.888 94.5042L10.1354 95.1627C11.3188 96.5152 13.2873 97.0402 15.688 97.0402V96.0402ZM10.888 94.5042L11.6641 93.8736C11.055 93.124 10.7101 91.9135 10.8299 90.0566L9.83202 89.9922L8.83409 89.9278C8.69789 92.039 9.05699 93.8365 10.1119 95.1348L10.888 94.5042ZM9.83202 89.9922L10.83 90.0564C11.4035 81.1344 12.5191 71.7931 14.1779 62.0318L13.192 61.8642L12.2062 61.6967C10.5369 71.5194 9.41252 80.93 8.83408 89.9281L9.83202 89.9922ZM13.192 61.8642L14.1781 62.0307C15.8365 52.2076 17.941 42.738 20.4911 33.6216L19.528 33.3522L18.565 33.0828C15.995 42.2704 13.8755 51.8089 12.206 61.6978L13.192 61.8642ZM19.528 33.3522L20.491 33.6219C20.8712 32.2639 21.5948 31.3956 22.646 30.8951L22.216 29.9922L21.7861 29.0894C20.1492 29.8688 19.0808 31.2406 18.5651 33.0826L19.528 33.3522ZM22.216 29.9922L22.646 30.8951C23.8083 30.3416 25.4055 30.0322 27.496 30.0322V29.0322V28.0322C25.2346 28.0322 23.3117 28.3629 21.7861 29.0894L22.216 29.9922ZM27.496 29.0322V30.0322C29.3879 30.0322 30.6473 30.3015 31.4012 30.7217C31.763 30.9234 31.9885 31.1486 32.1278 31.3815C32.2663 31.613 32.352 31.9064 32.352 32.2962H33.352H34.352C34.352 31.5981 34.1938 30.9394 33.8443 30.355C33.4955 29.7719 32.9891 29.3171 32.3749 28.9748C31.1767 28.3069 29.5081 28.0322 27.496 28.0322V29.0322ZM33.352 32.2962H32.352C32.352 33.0542 32.1886 33.9682 31.8273 35.052L32.776 35.3682L33.7247 35.6845C34.1315 34.4642 34.352 33.3303 34.352 32.2962H33.352ZM32.776 35.3682L31.8273 35.052C30.1436 40.1031 28.47 46.935 26.8023 55.5298L27.784 55.7202L28.7657 55.9107C30.4261 47.3535 32.0804 40.6174 33.7247 35.6845L32.776 35.3682ZM27.784 55.7202L26.8026 55.5284C25.1328 64.0701 23.9435 72.2321 23.2361 80.0137L24.232 80.1042L25.2279 80.1948C25.9285 72.4884 27.1073 64.3943 28.7654 55.9121L27.784 55.7202ZM24.232 80.1042L24.149 81.1008C27.2342 81.3579 29.7609 81.4882 31.72 81.4882V80.4882V79.4882C29.8391 79.4882 27.3738 79.3626 24.3151 79.1077L24.232 80.1042ZM31.72 80.4882V81.4882C40.7331 81.4882 47.5229 80.2083 51.9241 77.4999L51.4 76.6482L50.8759 75.7966C46.9571 78.2081 40.6269 79.4882 31.72 79.4882V80.4882ZM51.4 76.6482L51.9277 77.4977C56.3663 74.7403 58.736 71.1258 58.736 66.6642H57.736H56.736C56.736 70.2666 54.8817 73.3081 50.8723 75.7988L51.4 76.6482ZM57.736 66.6642H58.736C58.736 63.5087 57.3523 60.8632 54.7077 58.7754L54.088 59.5602L53.4684 60.3451C55.6877 62.0972 56.736 64.1878 56.736 66.6642H57.736ZM54.088 59.5602L54.7178 58.7835C52.0883 56.6514 47.8111 55.5868 42.1221 55.3928L42.088 56.3922L42.0539 57.3917C47.6289 57.5817 51.3517 58.629 53.4582 60.337L54.088 59.5602ZM42.088 56.3922L42.138 55.3935C40.9573 55.3344 40.3938 55.0451 40.1474 54.7679L39.4 55.4322L38.6526 56.0966C39.4302 56.9714 40.6587 57.322 42.0381 57.391L42.088 56.3922ZM39.4 55.4322L40.1474 54.7679C39.8762 54.4627 39.632 53.834 39.632 52.6482H38.632H37.632C37.632 54.0224 37.8998 55.2497 38.6526 56.0966L39.4 55.4322ZM38.632 52.6482H39.632C39.632 50.9239 39.9891 49.6314 40.6161 48.6909L39.784 48.1362L38.952 47.5815C38.0429 48.9451 37.632 50.6606 37.632 52.6482H38.632ZM39.784 48.1362L40.6161 48.6909C41.1301 47.9198 42.1513 47.3707 44.0393 47.3117L44.008 46.3122L43.9768 45.3127C41.7687 45.3817 39.9739 46.0486 38.952 47.5815L39.784 48.1362ZM44.008 46.3122L44.0362 47.3118C48.6609 47.1816 52.8561 46.497 56.6122 45.2449L56.296 44.2962L55.9798 43.3475C52.4399 44.5275 48.4432 45.1869 43.9799 45.3126L44.008 46.3122ZM56.296 44.2962L56.6073 45.2465C60.4302 43.9942 63.4969 42.2257 65.7496 39.9047L65.032 39.2082L64.3144 38.5118C62.3431 40.5428 59.5858 42.1663 55.9847 43.3459L56.296 44.2962ZM65.032 39.2082L65.7596 39.8942C68.0377 37.4781 69.2 34.6439 69.2 31.4322H68.2H67.2C67.2 34.1086 66.2503 36.4584 64.3044 38.5222L65.032 39.2082ZM68.2 31.4322H69.2C69.2 27.3089 67.1356 24.0925 63.2291 21.8308L62.728 22.6962L62.227 23.5617C65.6164 25.524 67.2 28.1316 67.2 31.4322H68.2ZM62.728 22.6962L63.2403 21.8374C59.3588 19.5221 53.5391 18.4322 45.928 18.4322V19.4322V20.4322C53.421 20.4322 58.8013 21.5183 62.2157 23.555L62.728 22.6962ZM45.928 19.4322V18.4322C38.9917 18.4322 32.2768 19.34 25.7864 21.1573L26.056 22.1202L26.3256 23.0832C32.6352 21.3165 39.1684 20.4322 45.928 20.4322V19.4322ZM26.056 22.1202L25.7954 21.1548C19.3289 22.9008 13.7987 25.1405 9.22152 27.8867L9.73602 28.7442L10.2505 29.6017C14.6334 26.972 19.9832 24.7957 26.3167 23.0857L26.056 22.1202ZM9.73602 28.7442L9.22548 27.8844C7.23759 29.0647 5.69554 29.5682 4.55202 29.5682V30.5682V31.5682C6.2245 31.5682 8.13844 30.8558 10.2466 29.6041L9.73602 28.7442ZM4.55202 30.5682V29.5682C3.64629 29.5682 3.05212 29.2799 2.63224 28.776L1.86402 29.4162L1.0958 30.0564C1.95591 31.0886 3.15374 31.5682 4.55202 31.5682V30.5682ZM1.86402 29.4162L2.68621 28.847C2.24769 28.2136 2.00002 27.3986 2.00002 26.3442H1.00002H1.72257e-05C1.72257e-05 27.7219 0.328345 28.9549 1.04183 29.9854L1.86402 29.4162ZM1.00002 26.3442H2.00002C2.00002 24.878 2.29265 23.6766 2.83417 22.7019L1.96002 22.2162L1.08586 21.7306C0.347382 23.0598 1.72257e-05 24.6105 1.72257e-05 26.3442H1.00002ZM1.96002 22.2162L2.8133 22.7377C3.37449 21.8194 4.80578 20.6126 7.35449 19.1471L6.85602 18.2802L6.35755 17.4133C3.78626 18.8918 1.95354 20.3091 1.10674 21.6948L1.96002 22.2162ZM6.85602 18.2802L7.35216 19.1485C12.6311 16.132 18.8429 13.763 26.0004 12.0529L25.768 11.0802L25.5356 10.1076C18.2291 11.8534 11.833 14.2845 6.35988 17.412L6.85602 18.2802ZM25.768 11.0802L26.0004 12.0529C33.1551 10.3433 40.4691 9.48823 47.944 9.48823V8.48823V7.48823C40.315 7.48823 32.8449 8.36113 25.5356 10.1076L25.768 11.0802ZM47.944 8.48823V9.48823C59.4491 9.48823 67.8477 11.4331 73.2987 15.1691L73.864 14.3442L74.4294 13.5194C68.4883 9.4474 59.607 7.48823 47.944 7.48823V8.48823ZM73.864 14.3442L73.2987 15.1691C78.748 18.904 81.408 23.7596 81.408 29.8002H82.408H83.408C83.408 23.0408 80.3721 17.5925 74.4294 13.5194L73.864 14.3442ZM81.5545 87.4002L82.3269 86.7651V86.7651L81.5545 87.4002ZM81.5545 61.5762L82.4413 62.0384L82.4439 62.0333L81.5545 61.5762ZM90.9625 50.5362L91.5387 51.3536L91.5413 51.3517L90.9625 50.5362ZM106.323 47.1762L105.533 47.7902L105.571 47.8393L105.615 47.8833L106.323 47.1762ZM107.571 50.0562L106.595 50.2779L106.809 51.2192L107.758 51.0386L107.571 50.0562ZM115.059 62.6322L116.039 62.8284L116.041 62.8188L115.059 62.6322ZM113.523 80.2962L112.733 80.9102L112.753 80.9361L112.775 80.9606L113.523 80.2962ZM119.859 78.8562L120.523 79.6036L120.53 79.5969L120.538 79.59L119.859 78.8562ZM126.867 71.1762L126.107 70.5254L126.099 70.5347L126.867 71.1762ZM131.379 70.9842L130.515 71.4881L130.53 71.514L130.546 71.5389L131.379 70.9842ZM130.323 80.1042L129.566 79.4506L129.554 79.4639L129.543 79.4777L130.323 80.1042ZM121.971 88.3602L122.576 89.1561V89.1561L121.971 88.3602ZM107.571 89.6082L106.922 90.3695L106.937 90.3823L106.953 90.3946L107.571 89.6082ZM103.635 83.6562L104.576 83.3184L103.875 81.3673L102.784 83.1299L103.635 83.6562ZM98.5465 79.5282L97.7539 78.9185V78.9185L98.5465 79.5282ZM101.331 72.9042L102.309 73.1091L102.311 73.1014L101.331 72.9042ZM104.883 55.2402L105.863 55.4374L106.11 54.2107L104.859 54.2405L104.883 55.2402ZM97.3945 58.3122L98.0453 59.0715L98.047 59.07L97.3945 58.3122ZM92.0185 65.9922L92.9405 66.3795V66.3795L92.0185 65.9922ZM91.1545 80.5842L90.3736 81.2089L90.3859 81.2243L90.3988 81.2392L91.1545 80.5842ZM91.0585 91.7202V90.7202C87.3676 90.7202 84.4914 89.3976 82.3269 86.7651L81.5545 87.4002L80.7821 88.0353C83.3536 91.1628 86.8134 92.7202 91.0585 92.7202V91.7202ZM81.5545 87.4002L82.3269 86.7651C80.1402 84.1056 79.0025 80.5727 79.0025 76.0722H78.0025H77.0025C77.0025 80.9158 78.2328 84.9349 80.7821 88.0353L81.5545 87.4002ZM78.0025 76.0722H79.0025C79.0025 71.1133 80.1476 66.4398 82.4413 62.0384L81.5545 61.5762L80.6677 61.1141C78.2254 65.8007 77.0025 70.7912 77.0025 76.0722H78.0025ZM81.5545 61.5762L82.4439 62.0333C84.7445 57.5565 87.7776 54.0048 91.5387 51.3536L90.9625 50.5362L90.3864 49.7189C86.3394 52.5717 83.1005 56.38 80.6651 61.1192L81.5545 61.5762ZM90.9625 50.5362L91.5413 51.3517C95.3582 48.643 99.351 47.3122 103.539 47.3122V46.3122V45.3122C98.8941 45.3122 94.5028 46.7975 90.3838 49.7207L90.9625 50.5362ZM103.539 46.3122V47.3122C104.901 47.3122 105.392 47.6091 105.533 47.7902L106.323 47.1762L107.112 46.5623C106.357 45.5914 104.992 45.3122 103.539 45.3122V46.3122ZM106.323 47.1762L105.615 47.8833C105.916 48.1839 106.283 48.9033 106.595 50.2779L107.571 50.0562L108.546 49.8346C108.218 48.3932 107.753 47.1925 107.03 46.4691L106.323 47.1762ZM107.571 50.0562L107.758 51.0386C109.035 50.7952 110.381 50.6722 111.795 50.6722V49.6722V48.6722C110.264 48.6722 108.794 48.8053 107.383 49.0739L107.571 50.0562ZM111.795 49.6722V50.6722C113.274 50.6722 114.203 50.9418 114.741 51.326C115.217 51.6658 115.499 52.1751 115.499 53.0322H116.499H117.499C117.499 51.6494 116.996 50.4786 115.904 49.6985C114.874 48.9627 113.451 48.6722 111.795 48.6722V49.6722ZM116.499 53.0322H115.499C115.499 54.2615 115.042 57.3576 114.076 62.4457L115.059 62.6322L116.041 62.8188C116.995 57.7949 117.499 54.491 117.499 53.0322H116.499ZM115.059 62.6322L114.078 62.4361C112.607 69.7899 111.851 75.0005 111.851 77.9922H112.851H113.851C113.851 75.224 114.566 70.1945 116.039 62.8283L115.059 62.6322ZM112.851 77.9922H111.851C111.851 79.1043 112.111 80.1102 112.733 80.9102L113.523 80.2962L114.312 79.6823C114.038 79.3303 113.851 78.8002 113.851 77.9922H112.851ZM113.523 80.2962L112.775 80.9606C113.476 81.7492 114.388 82.1602 115.443 82.1602V81.1602V80.1602C114.961 80.1602 114.593 79.9952 114.27 79.6319L113.523 80.2962ZM115.443 81.1602V82.1602C117.045 82.1602 118.756 81.174 120.523 79.6036L119.859 78.8562L119.194 78.1088C117.505 79.6105 116.272 80.1602 115.443 80.1602V81.1602ZM119.859 78.8562L120.538 79.59C122.314 77.9455 124.683 75.346 127.634 71.8178L126.867 71.1762L126.099 70.5347C123.162 74.0465 120.859 76.5669 119.179 78.1225L119.859 78.8562ZM126.867 71.1762L127.626 71.827C128.251 71.0973 128.856 70.8322 129.459 70.8322V69.8322V68.8322C128.141 68.8322 127.018 69.4632 126.107 70.5254L126.867 71.1762ZM129.459 69.8322V70.8322C129.906 70.8322 130.231 71.0016 130.515 71.4881L131.379 70.9842L132.242 70.4804C131.63 69.4309 130.675 68.8322 129.459 68.8322V69.8322ZM131.379 70.9842L130.546 71.5389C130.91 72.0836 131.147 72.9202 131.147 74.1522H132.147H133.147C133.147 72.6963 132.871 71.4208 132.211 70.4295L131.379 70.9842ZM132.147 74.1522H131.147C131.147 76.5625 130.574 78.2825 129.566 79.4506L130.323 80.1042L131.079 80.7579C132.503 79.1099 133.147 76.862 133.147 74.1522H132.147ZM130.323 80.1042L129.543 79.4777C126.963 82.6866 124.237 85.3795 121.365 87.5644L121.971 88.3602L122.576 89.1561C125.592 86.8609 128.434 84.0499 131.102 80.7308L130.323 80.1042ZM121.971 88.3602L121.365 87.5644C118.536 89.7172 115.895 90.7202 113.427 90.7202V91.7202V92.7202C116.462 92.7202 119.517 91.4833 122.576 89.1561L121.971 88.3602ZM113.427 91.7202V90.7202C111.557 90.7202 109.819 90.1032 108.188 88.8219L107.571 89.6082L106.953 90.3946C108.906 91.9293 111.072 92.7202 113.427 92.7202V91.7202ZM107.571 89.6082L108.219 88.847C106.645 87.5059 105.423 85.678 104.576 83.3184L103.635 83.6562L102.693 83.9941C103.638 86.6265 105.04 88.7665 106.922 90.3695L107.571 89.6082ZM103.635 83.6562L102.784 83.1299C99.5861 88.2962 95.679 90.7202 91.0585 90.7202V91.7202V92.7202C96.55 92.7202 101.027 89.7683 104.485 84.1826L103.635 83.6562ZM94.5145 82.0242V83.0242C96.3624 83.0242 97.966 81.923 99.3391 80.1379L98.5465 79.5282L97.7539 78.9185C96.567 80.4614 95.4826 81.0242 94.5145 81.0242V82.0242ZM98.5465 79.5282L99.3391 80.1379C100.736 78.3214 101.712 75.9608 102.309 73.1091L101.331 72.9042L100.352 72.6994C99.7966 75.3517 98.9166 77.4071 97.7539 78.9185L98.5465 79.5282ZM101.331 72.9042L102.311 73.1014L105.863 55.4374L104.883 55.2402L103.902 55.0431L100.35 72.7071L101.331 72.9042ZM104.883 55.2402L104.859 54.2405C101.909 54.3107 99.197 55.4404 96.742 57.5545L97.3945 58.3122L98.047 59.07C100.2 57.216 102.48 56.2977 104.906 56.2399L104.883 55.2402ZM97.3945 58.3122L96.7437 57.553C94.3665 59.5906 92.4902 62.2868 91.0965 65.605L92.0185 65.9922L92.9405 66.3795C94.2348 63.2977 95.9425 60.8739 98.0453 59.0715L97.3945 58.3122ZM92.0185 65.9922L91.0965 65.605C89.6993 68.9316 89.0025 72.4557 89.0025 76.1682H90.0025H91.0025C91.0025 72.7128 91.6497 69.4528 92.9405 66.3795L92.0185 65.9922ZM90.0025 76.1682H89.0025C89.0025 78.2497 89.3998 79.9917 90.3736 81.2089L91.1545 80.5842L91.9354 79.9595C91.3732 79.2568 91.0025 78.0548 91.0025 76.1682H90.0025ZM91.1545 80.5842L90.3988 81.2392C91.4427 82.4436 92.8518 83.0242 94.5145 83.0242V82.0242V81.0242C93.3613 81.0242 92.5303 80.6448 91.9102 79.9293L91.1545 80.5842ZM127.992 86.4402L127.272 87.1344L127.279 87.1409L127.285 87.1473L127.992 86.4402ZM125.88 58.6962L126.766 59.1608V59.1608L125.88 58.6962ZM133.848 49.6722L133.305 48.8327H133.305L133.848 49.6722ZM152.28 49.6722L151.54 50.3449L151.551 50.3566L151.562 50.368L152.28 49.6722ZM153.432 64.4562L152.596 63.9082L152.589 63.9185L152.583 63.9289L153.432 64.4562ZM145.848 66.3762L145.215 67.1502L145.231 67.1636L145.248 67.1762L145.848 66.3762ZM145.272 61.1922L144.324 60.876L144.311 60.9124L144.302 60.9497L145.272 61.1922ZM145.08 56.5842L144.321 57.235L144.346 57.2642L144.373 57.2913L145.08 56.5842ZM139.224 57.9282L139.931 58.6353L139.94 58.6267L139.948 58.6179L139.224 57.9282ZM136.152 63.2082L135.206 62.8839V62.8839L136.152 63.2082ZM153.144 79.1442L153.642 80.0114L153.648 80.008L153.144 79.1442ZM162.168 71.1762L161.409 70.5254L161.401 70.5347L162.168 71.1762ZM166.68 70.9842L165.816 71.4881L165.832 71.514L165.848 71.5389L166.68 70.9842ZM165.624 80.1042L166.401 80.7339L166.408 80.7249L165.624 80.1042ZM154.776 88.7442L155.207 89.6469L155.213 89.6441L154.776 88.7442ZM142.68 91.7202V90.7202C136.601 90.7202 131.986 89.0198 128.699 85.7331L127.992 86.4402L127.285 87.1473C131.038 90.9007 136.216 92.7202 142.68 92.7202V91.7202ZM127.992 86.4402L128.712 85.7461C125.466 82.3799 123.808 77.9405 123.808 72.3282H122.808H121.808C121.808 78.364 123.606 83.3326 127.272 87.1344L127.992 86.4402ZM122.808 72.3282H123.808C123.808 67.2776 124.805 62.8982 126.766 59.1608L125.88 58.6962L124.995 58.2317C122.859 62.3022 121.808 67.0108 121.808 72.3282H122.808ZM125.88 58.6962L126.766 59.1608C128.745 55.3884 131.29 52.5184 134.392 50.5118L133.848 49.6722L133.305 48.8327C129.878 51.0501 127.112 54.1961 124.995 58.2317L125.88 58.6962ZM133.848 49.6722L134.392 50.5118C137.508 48.4953 140.745 47.5042 144.12 47.5042V46.5042V45.5042C140.327 45.5042 136.717 46.6252 133.305 48.8327L133.848 49.6722ZM144.12 46.5042V47.5042C147.429 47.5042 149.853 48.4886 151.54 50.3449L152.28 49.6722L153.02 48.9996C150.868 46.6319 147.851 45.5042 144.12 45.5042V46.5042ZM152.28 49.6722L151.562 50.368C153.339 52.2022 154.256 54.5953 154.256 57.6402H155.256H156.256C156.256 54.1571 155.19 51.2382 152.999 48.9764L152.28 49.6722ZM155.256 57.6402H154.256C154.256 60.1751 153.684 62.2467 152.596 63.9082L153.432 64.4562L154.269 65.0043C155.612 62.9538 156.256 60.4814 156.256 57.6402H155.256ZM153.432 64.4562L152.583 63.9289C151.583 65.5389 150.345 66.2402 148.824 66.2402V67.2402V68.2402C151.143 68.2402 152.977 67.0856 154.282 64.9836L153.432 64.4562ZM148.824 67.2402V66.2402C147.766 66.2402 147.002 65.9913 146.448 65.5762L145.848 66.3762L145.248 67.1762C146.231 67.9132 147.45 68.2402 148.824 68.2402V67.2402ZM145.848 66.3762L146.482 65.6023C146.041 65.2416 145.792 64.7429 145.792 63.9762H144.792H143.792C143.792 65.2576 144.248 66.3589 145.215 67.1502L145.848 66.3762ZM144.792 63.9762H145.792C145.792 63.62 145.844 63.183 145.96 62.6572L144.984 62.4402L144.008 62.2233C143.869 62.8495 143.792 63.4365 143.792 63.9762H144.792ZM144.984 62.4402L145.96 62.6572C146.088 62.0819 146.182 61.677 146.242 61.4348L145.272 61.1922L144.302 60.9497C144.235 61.2195 144.136 61.6465 144.008 62.2233L144.984 62.4402ZM145.272 61.1922L146.221 61.5085C146.568 60.4678 146.752 59.4641 146.752 58.5042H145.752H144.752C144.752 59.2084 144.617 59.9967 144.324 60.876L145.272 61.1922ZM145.752 58.5042H146.752C146.752 57.4933 146.476 56.5659 145.787 55.8771L145.08 56.5842L144.373 57.2913C144.58 57.4985 144.752 57.8512 144.752 58.5042H145.752ZM145.08 56.5842L145.84 55.9334C145.212 55.2011 144.318 54.9122 143.352 54.9122V55.9122V56.9122C143.922 56.9122 144.181 57.0713 144.321 57.235L145.08 56.5842ZM143.352 55.9122V54.9122C141.539 54.9122 139.917 55.7513 138.5 57.2386L139.224 57.9282L139.948 58.6179C141.092 57.4172 142.221 56.9122 143.352 56.9122V55.9122ZM139.224 57.9282L138.517 57.2211C137.102 58.6368 136.009 60.5425 135.206 62.8839L136.152 63.2082L137.098 63.5326C137.831 61.394 138.787 59.7797 139.931 58.6353L139.224 57.9282ZM136.152 63.2082L135.206 62.8839C134.398 65.2414 134 67.8166 134 70.6002H135H136C136 68.0079 136.37 65.6551 137.098 63.5326L136.152 63.2082ZM135 70.6002H134C134 74.435 134.832 77.4978 136.67 79.6089C138.531 81.7464 141.271 82.7362 144.696 82.7362V81.7362V80.7362C141.657 80.7362 139.549 79.8701 138.178 78.2956C136.785 76.6946 136 74.1895 136 70.6002H135ZM144.696 81.7362V82.7362C147.543 82.7362 150.53 81.7992 153.642 80.0113L153.144 79.1442L152.646 78.2771C149.742 79.9452 147.098 80.7362 144.696 80.7362V81.7362ZM153.144 79.1442L153.648 80.008C156.844 78.1436 159.938 75.4021 162.935 71.8178L162.168 71.1762L161.401 70.5347C158.511 73.9904 155.588 76.5609 152.64 78.2805L153.144 79.1442ZM162.168 71.1762L162.928 71.827C163.553 71.0973 164.158 70.8322 164.76 70.8322V69.8322V68.8322C163.443 68.8322 162.32 69.4632 161.409 70.5254L162.168 71.1762ZM164.76 69.8322V70.8322C165.208 70.8322 165.533 71.0016 165.816 71.4881L166.68 70.9842L167.544 70.4804C166.932 69.4309 165.977 68.8322 164.76 68.8322V69.8322ZM166.68 70.9842L165.848 71.5389C166.211 72.0836 166.448 72.9202 166.448 74.1522H167.448H168.448C168.448 72.6963 168.173 71.4208 167.512 70.4295L166.68 70.9842ZM167.448 74.1522H166.448C166.448 76.4146 165.885 78.1634 164.84 79.4835L165.624 80.1042L166.408 80.7249C167.795 78.9731 168.448 76.7538 168.448 74.1522H167.448ZM165.624 80.1042L164.847 79.4746C161.93 83.0748 158.43 85.8616 154.34 87.8444L154.776 88.7442L155.213 89.6441C159.571 87.5309 163.303 84.5577 166.401 80.7338L165.624 80.1042ZM154.776 88.7442L154.346 87.8416C150.296 89.773 146.411 90.7202 142.68 90.7202V91.7202V92.7202C146.758 92.7202 150.936 91.6835 155.207 89.6468L154.776 88.7442ZM217.096 70.9842L216.232 71.4881L216.247 71.514L216.264 71.5389L217.096 70.9842ZM216.04 80.1042L215.283 79.4506L215.274 79.4607L215.266 79.471L216.04 80.1042ZM207.304 88.5522L207.887 89.3648V89.3648L207.304 88.5522ZM184.936 87.4962L185.619 86.7662V86.7662L184.936 87.4962ZM184.264 70.8882L184.655 71.8086L184.66 71.8063L184.264 70.8882ZM190.312 67.0482L191.054 67.7191L191.061 67.7106L191.069 67.7019L190.312 67.0482ZM191.368 59.3682L190.579 59.9822L190.599 60.0081L190.621 60.0326L191.368 59.3682ZM183.88 62.2482L183.117 61.6023L183.112 61.6081L183.107 61.6139L183.88 62.2482ZM178.12 71.9442L179.029 72.3614L179.031 72.3558L178.12 71.9442ZM173.896 84.0402L172.925 83.8012L172.922 83.8123L173.896 84.0402ZM171.4 90.1842L170.65 89.5226L170.647 89.5257L171.4 90.1842ZM162.664 89.6082L161.81 90.1282L161.823 90.1502L161.838 90.1716L162.664 89.6082ZM160.84 82.8882L159.846 82.994V82.994L160.84 82.8882ZM163.336 38.8242L162.354 38.636L162.353 38.6417L163.336 38.8242ZM172.264 11.9442L171.386 11.4665L171.384 11.4692L172.264 11.9442ZM193.576 4.84023L192.757 5.41369L192.765 5.42543L192.774 5.43694L193.576 4.84023ZM190.696 34.7922L191.574 35.2717L191.575 35.2683L190.696 34.7922ZM172.264 59.0802L171.527 58.4043L171.286 58.6669L171.266 59.0226L172.264 59.0802ZM171.976 69.3522H170.976L172.91 69.7107L171.976 69.3522ZM182.536 51.9762L183.206 52.7184L183.213 52.7124L182.536 51.9762ZM201.352 49.7682L200.602 50.4299L200.608 50.436L200.613 50.442L201.352 49.7682ZM192.424 75.4002L191.956 74.5164L191.331 74.8473L191.435 75.5468L192.424 75.4002ZM194.728 79.6242L194.08 80.3862L194.101 80.4035L194.122 80.4197L194.728 79.6242ZM205.288 78.8562L204.65 78.0858V78.0858L205.288 78.8562ZM212.584 71.1762L211.825 70.5254L211.818 70.5334L212.584 71.1762ZM180.616 15.4962L181.534 15.8923L181.537 15.8859L180.616 15.4962ZM176.488 28.8402L175.515 28.6081L175.513 28.6162L176.488 28.8402ZM173.32 47.0802L172.328 46.955L171.907 50.2885L174.082 47.7276L173.32 47.0802ZM183.112 31.8162L182.209 31.3859L182.205 31.3945L183.112 31.8162ZM186.376 12.1362L187.301 11.7555V11.7555L186.376 12.1362ZM215.176 69.8322V70.8322C215.624 70.8322 215.948 71.0016 216.232 71.4881L217.096 70.9842L217.96 70.4804C217.348 69.4309 216.393 68.8322 215.176 68.8322V69.8322ZM217.096 70.9842L216.264 71.5389C216.627 72.0836 216.864 72.9202 216.864 74.1522H217.864H218.864C218.864 72.6963 218.589 71.4208 217.928 70.4295L217.096 70.9842ZM217.864 74.1522H216.864C216.864 76.5625 216.292 78.2825 215.283 79.4506L216.04 80.1042L216.797 80.7579C218.22 79.1099 218.864 76.862 218.864 74.1522H217.864ZM216.04 80.1042L215.266 79.471C212.428 82.9396 209.578 85.6899 206.721 87.7397L207.304 88.5522L207.887 89.3648C210.918 87.1906 213.892 84.3089 216.814 80.7375L216.04 80.1042ZM207.304 88.5522L206.721 87.7397C203.966 89.7161 200.688 90.7202 196.84 90.7202V91.7202V92.7202C201.056 92.7202 204.754 91.6123 207.887 89.3648L207.304 88.5522ZM196.84 91.7202V90.7202C192.113 90.7202 188.407 89.3758 185.619 86.7662L184.936 87.4962L184.253 88.2263C187.481 91.2487 191.711 92.7202 196.84 92.7202V91.7202ZM184.936 87.4962L185.619 86.7662C182.841 84.1655 181.424 80.7003 181.424 76.2642H180.424H179.424C179.424 81.1721 181.015 85.195 184.253 88.2263L184.936 87.4962ZM180.424 76.2642H181.424C181.424 75.1957 181.695 74.3338 182.198 73.6295C182.706 72.918 183.5 72.2993 184.655 71.8086L184.264 70.8882L183.873 69.9679C182.468 70.5651 181.342 71.3865 180.57 72.467C179.793 73.5547 179.424 74.8367 179.424 76.2642H180.424ZM184.264 70.8882L184.66 71.8063C187.529 70.5676 189.697 69.2184 191.054 67.7191L190.312 67.0482L189.57 66.3773C188.495 67.566 186.631 68.7769 183.868 69.9702L184.264 70.8882ZM190.312 67.0482L191.069 67.7019C192.453 66.0995 193.136 64.1669 193.136 61.9602H192.136H191.136C191.136 63.7215 190.603 65.1809 189.555 66.3946L190.312 67.0482ZM192.136 61.9602H193.136C193.136 60.6812 192.854 59.5351 192.115 58.7039L191.368 59.3682L190.621 60.0326C190.906 60.3533 191.136 60.9353 191.136 61.9602H192.136ZM191.368 59.3682L192.157 58.7543C191.528 57.9451 190.666 57.5042 189.64 57.5042V58.5042V59.5042C190.023 59.5042 190.312 59.6394 190.579 59.9822L191.368 59.3682ZM189.64 58.5042V57.5042C187.442 57.5042 185.264 59.065 183.117 61.6023L183.88 62.2482L184.643 62.8942C186.72 60.4394 188.382 59.5042 189.64 59.5042V58.5042ZM183.88 62.2482L183.107 61.6139C180.988 64.1967 179.025 67.5105 177.209 71.5326L178.12 71.9442L179.031 72.3558C180.799 68.442 182.676 65.2918 184.653 62.8826L183.88 62.2482ZM178.12 71.9442L177.211 71.5271C175.393 75.4882 173.964 79.5798 172.925 83.8012L173.896 84.0402L174.867 84.2793C175.876 80.1806 177.263 76.2083 179.029 72.3614L178.12 71.9442ZM173.896 84.0402L172.922 83.8123C172.223 86.8024 171.433 88.6349 170.65 89.5226L171.4 90.1842L172.15 90.8459C173.287 89.5575 174.161 87.2941 174.87 84.2681L173.896 84.0402ZM171.4 90.1842L170.647 89.5257C170.015 90.2485 168.911 90.7202 167.08 90.7202V91.7202V92.7202C169.218 92.7202 170.993 92.168 172.153 90.8427L171.4 90.1842ZM167.08 91.7202V90.7202C165.364 90.7202 164.231 90.1317 163.49 89.0449L162.664 89.6082L161.838 90.1716C163.017 91.9008 164.828 92.7202 167.08 92.7202V91.7202ZM162.664 89.6082L163.518 89.0883C162.737 87.8041 162.149 85.7384 161.834 82.7824L160.84 82.8882L159.846 82.994C160.171 86.054 160.8 88.4684 161.81 90.1282L162.664 89.6082ZM160.84 82.8882L161.834 82.7824C161.52 79.8283 161.36 75.4548 161.36 69.6402H160.36H159.36C159.36 75.4736 159.52 79.9321 159.846 82.994L160.84 82.8882ZM160.36 69.6402H161.36C161.36 59.8513 162.345 49.6406 164.319 39.0067L163.336 38.8242L162.353 38.6417C160.359 49.3838 159.36 59.7171 159.36 69.6402H160.36ZM163.336 38.8242L164.318 39.0124C166.353 28.3942 169.301 19.5377 173.144 12.4193L172.264 11.9442L171.384 11.4692C167.419 18.8148 164.415 27.8782 162.354 38.636L163.336 38.8242ZM172.264 11.9442L173.143 12.422C177.033 5.26824 181.501 2.00023 186.472 2.00023V1.00023V0.000228882C180.435 0.000228882 175.431 4.02822 171.386 11.4665L172.264 11.9442ZM186.472 1.00023V2.00023C189.067 2.00023 191.138 3.10163 192.757 5.41369L193.576 4.84023L194.395 4.26677C192.43 1.45883 189.765 0.000228882 186.472 0.000228882V1.00023ZM193.576 4.84023L192.774 5.43694C194.468 7.71544 195.36 10.7514 195.36 14.6322H196.36H197.36C197.36 10.4491 196.396 6.95702 194.378 4.24353L193.576 4.84023ZM196.36 14.6322H195.36C195.36 20.8963 193.531 27.4536 189.817 34.3162L190.696 34.7922L191.575 35.2683C195.413 28.1789 197.36 21.2962 197.36 14.6322H196.36ZM190.696 34.7922L189.818 34.3128C186.097 41.1246 180.013 49.1529 171.527 58.4043L172.264 59.0802L173.001 59.7562C181.539 50.4476 187.743 42.2839 191.574 35.2717L190.696 34.7922ZM172.264 59.0802L171.266 59.0226C171.073 62.3708 170.976 65.8141 170.976 69.3522H171.976H172.976C172.976 65.8504 173.072 62.4456 173.262 59.1378L172.264 59.0802ZM171.976 69.3522L172.91 69.7107C175.956 61.7785 179.405 56.152 183.206 52.7183L182.536 51.9762L181.866 51.2341C177.731 54.9685 174.141 60.9259 171.042 68.9938L171.976 69.3522ZM182.536 51.9762L183.213 52.7124C187.095 49.1428 190.575 47.5042 193.672 47.5042V46.5042V45.5042C189.857 45.5042 185.913 47.5136 181.859 51.2401L182.536 51.9762ZM193.672 46.5042V47.5042C196.618 47.5042 198.893 48.4926 200.602 50.4299L201.352 49.7682L202.102 49.1066C199.971 46.6919 197.126 45.5042 193.672 45.5042V46.5042ZM201.352 49.7682L200.613 50.442C202.414 52.4171 203.328 54.858 203.328 57.8322H204.328H205.328C205.328 54.4065 204.258 51.4713 202.091 49.0945L201.352 49.7682ZM204.328 57.8322H203.328C203.328 61.1729 202.48 64.2244 200.786 67.0083L201.64 67.5282L202.494 68.0482C204.384 64.944 205.328 61.5315 205.328 57.8322H204.328ZM201.64 67.5282L200.786 67.0083C199.119 69.7462 196.213 72.2626 191.956 74.5164L192.424 75.4002L192.892 76.284C197.339 73.9299 200.577 71.1983 202.494 68.0482L201.64 67.5282ZM192.424 75.4002L191.435 75.5468C191.725 77.5041 192.608 79.1345 194.08 80.3862L194.728 79.6242L195.376 78.8623C194.288 77.938 193.635 76.7524 193.413 75.2537L192.424 75.4002ZM194.728 79.6242L194.122 80.4197C195.657 81.5896 197.476 82.1602 199.528 82.1602V81.1602V80.1602C197.868 80.1602 196.487 79.7069 195.334 78.8288L194.728 79.6242ZM199.528 81.1602V82.1602C201.792 82.1602 203.93 81.278 205.926 79.6266L205.288 78.8562L204.65 78.0858C202.934 79.5064 201.232 80.1602 199.528 80.1602V81.1602ZM205.288 78.8562L205.926 79.6266C207.853 78.0312 210.332 75.4148 213.35 71.8191L212.584 71.1762L211.818 70.5334C208.82 74.1057 206.435 76.6092 204.65 78.0858L205.288 78.8562ZM212.584 71.1762L213.343 71.827C213.969 71.0973 214.574 70.8322 215.176 70.8322V69.8322V68.8322C213.858 68.8322 212.735 69.4632 211.825 70.5254L212.584 71.1762ZM184.456 10.5042V9.50423C183.389 9.50423 182.521 10.256 181.839 11.1425C181.123 12.0736 180.412 13.4118 179.695 15.1066L180.616 15.4962L181.537 15.8859C182.228 14.2527 182.861 13.0949 183.425 12.3619C184.023 11.5845 184.371 11.5042 184.456 11.5042V10.5042ZM180.616 15.4962L179.698 15.1001C178.257 18.4396 176.866 22.9502 175.515 28.6081L176.488 28.8402L177.461 29.0723C178.799 23.4663 180.159 19.0809 181.534 15.8923L180.616 15.4962ZM176.488 28.8402L175.513 28.6162C174.225 34.2216 173.163 40.335 172.328 46.955L173.32 47.0802L174.312 47.2055C175.141 40.6415 176.191 34.5949 177.463 29.0643L176.488 28.8402ZM173.32 47.0802L174.082 47.7276C178.108 42.9879 181.421 37.8241 184.019 32.238L183.112 31.8162L182.205 31.3945C179.684 36.8164 176.468 41.8286 172.558 46.4329L173.32 47.0802ZM183.112 31.8162L184.015 32.2466C186.681 26.6541 188.048 21.5128 188.048 16.8402H187.048H186.048C186.048 21.1277 184.791 25.9704 182.209 31.3859L183.112 31.8162ZM187.048 16.8402H188.048C188.048 14.744 187.822 13.0223 187.301 11.7555L186.376 12.1362L185.451 12.517C185.826 13.4262 186.048 14.8405 186.048 16.8402H187.048ZM186.376 12.1362L187.301 11.7555C186.774 10.4766 185.861 9.50423 184.456 9.50423V10.5042V11.5042C184.715 11.5042 185.082 11.6198 185.451 12.517L186.376 12.1362ZM258.705 70.9842L257.841 71.4881L257.857 71.514L257.873 71.5389L258.705 70.9842ZM257.649 80.1042L256.892 79.4506L256.882 79.4622L256.873 79.4742L257.649 80.1042ZM248.625 88.4562L248.071 87.6242V87.6242L248.625 88.4562ZM218.097 55.6242L219.095 55.6908L219.166 54.6242H218.097V55.6242ZM210.417 54.5682L209.677 55.2409L209.693 55.2585L209.71 55.2753L210.417 54.5682ZM219.249 45.8322V46.8322H220.107L220.238 45.985L219.249 45.8322ZM224.241 26.5362L223.308 26.1773V26.1773L224.241 26.5362ZM232.305 12.6162L231.571 11.9368L231.565 11.9442L232.305 12.6162ZM248.913 10.9842L249.752 10.44V10.44L248.913 10.9842ZM238.737 45.8322L238.075 45.0832L236.098 46.8322H238.737V45.8322ZM229.809 55.6242V54.6242H228.848L228.81 55.5843L229.809 55.6242ZM231.921 77.1282L231.053 77.6244L231.057 77.6321L231.062 77.6397L231.921 77.1282ZM246.705 78.6642L247.324 79.4497V79.4497L246.705 78.6642ZM254.193 71.1762L254.949 71.8306L254.953 71.827L254.193 71.1762ZM236.721 20.2962L235.827 19.849L235.822 19.8588L236.721 20.2962ZM233.361 30.2802L232.392 30.0343L232.389 30.0446L233.361 30.2802ZM230.769 44.3922L229.778 44.2577L229.422 46.8782L231.423 45.1488L230.769 44.3922ZM239.217 33.4482L238.312 33.0238L238.309 33.0301L239.217 33.4482ZM256.785 69.8322V70.8322C257.233 70.8322 257.558 71.0016 257.841 71.4881L258.705 70.9842L259.569 70.4804C258.957 69.4309 258.002 68.8322 256.785 68.8322V69.8322ZM258.705 70.9842L257.873 71.5389C258.236 72.0836 258.473 72.9202 258.473 74.1522H259.473H260.473C260.473 72.6963 260.198 71.4208 259.537 70.4295L258.705 70.9842ZM259.473 74.1522H258.473C258.473 76.5625 257.901 78.2825 256.892 79.4506L257.649 80.1042L258.406 80.7579C259.829 79.1099 260.473 76.862 260.473 74.1522H259.473ZM257.649 80.1042L256.873 79.4742C254.177 82.7968 251.242 85.5099 248.071 87.6242L248.625 88.4562L249.18 89.2883C252.537 87.0506 255.618 84.1956 258.426 80.7343L257.649 80.1042ZM248.625 88.4562L248.071 87.6242C244.984 89.6822 241.436 90.7202 237.393 90.7202V91.7202V92.7202C241.799 92.7202 245.739 91.5823 249.18 89.2883L248.625 88.4562ZM237.393 91.7202V90.7202C231.13 90.7202 226.565 88.5363 223.52 84.2529C220.431 79.9067 218.809 73.2641 218.809 64.1682H217.809H216.809C216.809 73.4404 218.451 80.5738 221.89 85.4116C225.374 90.3121 230.6 92.7202 237.393 92.7202V91.7202ZM217.809 64.1682H218.809C218.809 61.375 218.904 58.5492 219.095 55.6908L218.097 55.6242L217.099 55.5577C216.906 58.4593 216.809 61.3295 216.809 64.1682H217.809ZM218.097 55.6242V54.6242H214.353V55.6242V56.6242H218.097V55.6242ZM214.353 55.6242V54.6242C212.481 54.6242 211.529 54.2657 211.124 53.8611L210.417 54.5682L209.71 55.2753C210.714 56.2788 212.386 56.6242 214.353 56.6242V55.6242ZM210.417 54.5682L211.157 53.8956C210.761 53.4601 210.457 52.64 210.457 51.2082H209.457H208.457C208.457 52.8485 208.793 54.2683 209.677 55.2409L210.417 54.5682ZM209.457 51.2082H210.457C210.457 49.5239 210.8 48.4458 211.317 47.8026C211.8 47.2013 212.556 46.8322 213.777 46.8322V45.8322V44.8322C212.118 44.8322 210.715 45.3592 209.758 46.5498C208.835 47.6987 208.457 49.3086 208.457 51.2082H209.457ZM213.777 45.8322V46.8322H219.249V45.8322V44.8322H213.777V45.8322ZM219.249 45.8322L220.238 45.985C221.316 39.0058 222.964 32.644 225.175 26.8952L224.241 26.5362L223.308 26.1773C221.039 32.0764 219.358 38.5787 218.261 45.6795L219.249 45.8322ZM224.241 26.5362L225.175 26.8952C227.384 21.15 230.016 16.6276 233.046 13.2882L232.305 12.6162L231.565 11.9442C228.323 15.5169 225.578 20.2745 223.308 26.1773L224.241 26.5362ZM232.305 12.6162L233.039 13.2956C236.108 9.9811 239.283 8.43223 242.577 8.43223V7.43223V6.43223C238.575 6.43223 234.902 8.33936 231.572 11.9368L232.305 12.6162ZM242.577 7.43223V8.43223C244.907 8.43223 246.712 9.42758 248.074 11.5284L248.913 10.9842L249.752 10.44C248.043 7.80488 245.624 6.43223 242.577 6.43223V7.43223ZM248.913 10.9842L248.074 11.5284C249.48 13.6958 250.217 16.4696 250.217 19.9122H251.217H252.217C252.217 16.1869 251.418 13.0086 249.752 10.44L248.913 10.9842ZM251.217 19.9122H250.217C250.217 29.5096 246.209 37.8877 238.075 45.0832L238.737 45.8322L239.4 46.5812C247.906 39.0568 252.217 30.1549 252.217 19.9122H251.217ZM238.737 45.8322V46.8322H249.489V45.8322V44.8322H238.737V45.8322ZM249.489 45.8322V46.8322C250.405 46.8322 250.817 47.0383 250.99 47.2113L251.697 46.5042L252.404 45.7971C251.681 45.0741 250.622 44.8322 249.489 44.8322V45.8322ZM251.697 46.5042L250.99 47.2113C251.139 47.3605 251.369 47.8335 251.369 49.0002H252.369H253.369C253.369 47.7349 253.151 46.544 252.404 45.7971L251.697 46.5042ZM252.369 49.0002H251.369C251.369 50.8777 250.632 52.2015 249.136 53.1148C247.56 54.077 245.068 54.6242 241.521 54.6242V55.6242V56.6242C245.206 56.6242 248.138 56.0675 250.178 54.8217C252.299 53.5269 253.369 51.5388 253.369 49.0002H252.369ZM241.521 55.6242V54.6242H229.809V55.6242V56.6242H241.521V55.6242ZM229.809 55.6242L228.81 55.5843C228.682 58.789 228.617 61.3004 228.617 63.1122H229.617H230.617C230.617 61.34 230.681 58.8595 230.808 55.6642L229.809 55.6242ZM229.617 63.1122H228.617C228.617 69.7849 229.377 74.6907 231.053 77.6244L231.921 77.1282L232.79 76.6321C231.394 74.1897 230.617 69.7516 230.617 63.1122H229.617ZM231.921 77.1282L231.062 77.6397C232.86 80.6603 235.701 82.1602 239.409 82.1602V81.1602V80.1602C236.334 80.1602 234.183 78.9721 232.781 76.6168L231.921 77.1282ZM239.409 81.1602V82.1602C242.38 82.1602 245.031 81.2562 247.324 79.4497L246.705 78.6642L246.086 77.8787C244.155 79.4003 241.942 80.1602 239.409 80.1602V81.1602ZM246.705 78.6642L247.324 79.4497C249.507 77.7297 252.051 75.1804 254.949 71.8306L254.193 71.1762L253.437 70.5219C250.576 73.828 248.127 76.2708 246.086 77.8787L246.705 78.6642ZM254.193 71.1762L254.953 71.827C255.578 71.0973 256.183 70.8322 256.785 70.8322V69.8322V68.8322C255.468 68.8322 254.345 69.4632 253.434 70.5254L254.193 71.1762ZM239.985 16.6482V15.6482C239.074 15.6482 238.311 16.2149 237.704 16.8934C237.075 17.597 236.452 18.5988 235.827 19.849L236.721 20.2962L237.616 20.7434C238.207 19.5617 238.736 18.7394 239.195 18.227C239.675 17.6896 239.936 17.6482 239.985 17.6482V16.6482ZM236.721 20.2962L235.822 19.8588C234.627 22.3154 233.487 25.7183 232.392 30.0343L233.361 30.2802L234.331 30.5262C235.411 26.2662 236.512 23.0131 237.62 20.7337L236.721 20.2962ZM233.361 30.2802L232.389 30.0446C231.356 34.3078 230.486 39.0463 229.778 44.2577L230.769 44.3922L231.76 44.5268C232.46 39.3702 233.319 34.7006 234.333 30.5158L233.361 30.2802ZM230.769 44.3922L231.423 45.1488C235.294 41.8031 238.203 38.0433 240.126 33.8664L239.217 33.4482L238.309 33.0301C236.52 36.9172 233.797 40.4534 230.115 43.6357L230.769 44.3922ZM239.217 33.4482L240.123 33.8727C242.084 29.689 243.097 25.8297 243.097 22.3122H242.097H241.097C241.097 25.4507 240.191 29.0155 238.312 33.0238L239.217 33.4482ZM242.097 22.3122H243.097C243.097 20.3904 242.922 18.8296 242.506 17.7148C242.296 17.151 242.001 16.6368 241.576 16.2567C241.13 15.8579 240.585 15.6482 239.985 15.6482V16.6482V17.6482C240.09 17.6482 240.161 17.6746 240.243 17.7478C240.346 17.8396 240.491 18.0334 240.632 18.4136C240.921 19.1869 241.097 20.458 241.097 22.3122H242.097ZM253.289 87.8802L252.352 88.2314L252.356 88.2415L252.36 88.2516L253.289 87.8802ZM255.401 51.8802L256.354 52.1818L256.356 52.1766L255.401 51.8802ZM258.185 47.8482L258.73 48.6867L258.739 48.6803L258.185 47.8482ZM265.769 55.7202L264.803 55.4615L264.801 55.4696L264.799 55.4777L265.769 55.7202ZM263.273 69.5442L262.277 69.4537L264.206 69.9025L263.273 69.5442ZM270.377 56.1042L269.58 55.4995V55.4995L270.377 56.1042ZM278.057 48.7122L277.558 47.8453L277.549 47.8509L278.057 48.7122ZM290.441 58.7922L291.421 58.9883L291.423 58.9789L291.425 58.9694L290.441 58.7922ZM298.985 62.7282L298.278 62.0211V62.0211L298.985 62.7282ZM303.497 62.6322L302.633 63.1361L302.658 63.1796L302.688 63.2204L303.497 62.6322ZM302.345 71.0802L303.064 71.7748L303.069 71.7699L302.345 71.0802ZM296.009 75.8802L296.484 76.76L296.492 76.7555L296.009 75.8802ZM280.649 75.2082L279.942 75.9153L279.948 75.9218L279.955 75.9281L280.649 75.2082ZM278.345 65.3202L279.325 65.5163L279.335 65.4684L279.34 65.4197L278.345 65.3202ZM273.641 64.4562L272.835 63.8638L272.832 63.8681L273.641 64.4562ZM269.033 72.9042L268.116 72.5043V72.5043L269.033 72.9042ZM265.289 84.0402L264.318 83.8014L264.315 83.8123L265.289 84.0402ZM262.793 90.1842L262.043 89.5226L262.04 89.5257L262.793 90.1842ZM258.473 91.7202V90.7202C257.442 90.7202 256.618 90.4527 255.948 89.9567C255.27 89.4542 254.68 88.6646 254.217 87.5088L253.289 87.8802L252.36 88.2516C252.922 89.6559 253.708 90.7863 254.758 91.5638C255.816 92.3478 257.072 92.7202 258.473 92.7202V91.7202ZM253.289 87.8802L254.225 87.5291C253.332 85.1472 252.849 81.204 252.849 75.5922H251.849H250.849C250.849 81.2445 251.326 85.4933 252.352 88.2314L253.289 87.8802ZM251.849 75.5922H252.849C252.849 67.3684 254.019 59.5666 256.354 52.1818L255.401 51.8802L254.447 51.5787C252.047 59.1699 250.849 67.176 250.849 75.5922H251.849ZM255.401 51.8802L256.356 52.1766C256.882 50.4814 257.694 49.3599 258.73 48.6867L258.185 47.8482L257.64 47.0098C256.116 48.0005 255.072 49.567 254.446 51.5838L255.401 51.8802ZM258.185 47.8482L258.739 48.6803C259.859 47.9338 261.495 47.5042 263.753 47.5042V46.5042V45.5042C261.274 45.5042 259.198 45.9707 257.63 47.0162L258.185 47.8482ZM263.753 46.5042V47.5042C265.013 47.5042 265.657 47.6734 265.911 47.8322L266.441 46.9842L266.971 46.1362C266.201 45.6551 265.053 45.5042 263.753 45.5042V46.5042ZM266.441 46.9842L265.911 47.8322C266.005 47.8912 266.209 48.0774 266.209 48.8082H267.209H268.209C268.209 47.747 267.9 46.7173 266.971 46.1362L266.441 46.9842ZM267.209 48.8082H266.209C266.209 49.2081 266.109 49.9517 265.87 51.1003C265.635 52.2266 265.28 53.6786 264.803 55.4615L265.769 55.7202L266.735 55.979C267.217 54.1779 267.582 52.6859 267.828 51.5082C268.068 50.3528 268.209 49.4324 268.209 48.8082H267.209ZM265.769 55.7202L264.799 55.4777C264.156 58.0482 263.64 60.3043 263.252 62.2441L264.233 62.4402L265.213 62.6364C265.593 60.7362 266.102 58.5123 266.739 55.9628L265.769 55.7202ZM264.233 62.4402L263.252 62.2441C262.859 64.2106 262.535 66.6163 262.277 69.4537L263.273 69.5442L264.269 69.6348C264.523 66.8401 264.839 64.5099 265.213 62.6364L264.233 62.4402ZM263.273 69.5442L264.206 69.9025C266.296 64.4574 268.623 60.0682 271.173 56.7089L270.377 56.1042L269.58 55.4995C266.883 59.0522 264.474 63.6231 262.339 69.186L263.273 69.5442ZM270.377 56.1042L271.173 56.7089C273.754 53.3098 276.222 50.9553 278.565 49.5736L278.057 48.7122L277.549 47.8509C274.9 49.4132 272.247 51.9866 269.58 55.4995L270.377 56.1042ZM278.057 48.7122L278.555 49.5791C281.021 48.1613 283.184 47.5042 285.065 47.5042V46.5042V45.5042C282.722 45.5042 280.213 46.3191 277.558 47.8453L278.057 48.7122ZM285.065 46.5042V47.5042C286.991 47.5042 288.251 47.985 289.038 48.7713C289.824 49.5577 290.305 50.8184 290.305 52.7442H291.305H292.305C292.305 50.5101 291.746 48.6508 290.452 47.3571C289.158 46.0634 287.299 45.5042 285.065 45.5042V46.5042ZM291.305 52.7442H290.305C290.305 53.467 290.038 55.3833 289.457 58.6151L290.441 58.7922L291.425 58.9694C291.995 55.8011 292.305 53.6854 292.305 52.7442H291.305ZM290.441 58.7922L289.46 58.5961C289.203 59.8822 289.008 60.9362 288.877 61.7542C288.75 62.5511 288.673 63.1832 288.673 63.5922H289.673H290.673C290.673 63.3612 290.724 62.8734 290.852 62.0702C290.977 61.2882 291.167 60.2623 291.421 58.9883L290.441 58.7922ZM289.673 63.5922H288.673C288.673 64.8011 288.883 65.8873 289.459 66.6935C290.079 67.5616 291.01 67.9522 292.073 67.9522V66.9522V65.9522C291.536 65.9522 291.266 65.7828 291.087 65.531C290.862 65.2172 290.673 64.6234 290.673 63.5922H289.673ZM292.073 66.9522V67.9522C293.223 67.9522 294.431 67.5043 295.666 66.7495C296.909 65.9899 298.252 64.8755 299.692 63.4353L298.985 62.7282L298.278 62.0211C296.902 63.397 295.684 64.3946 294.623 65.043C293.554 65.6962 292.714 65.9522 292.073 65.9522V66.9522ZM298.985 62.7282L299.692 63.4353C300.397 62.7299 301.021 62.4802 301.577 62.4802V61.4802V60.4802C300.34 60.4802 299.236 61.0626 298.278 62.0211L298.985 62.7282ZM301.577 61.4802V62.4802C302.024 62.4802 302.349 62.6496 302.633 63.1361L303.497 62.6322L304.361 62.1284C303.748 61.0789 302.793 60.4802 301.577 60.4802V61.4802ZM303.497 62.6322L302.688 63.2204C303.035 63.6976 303.265 64.4259 303.265 65.5122H304.265H305.265C305.265 64.1665 304.982 62.9749 304.306 62.0441L303.497 62.6322ZM304.265 65.5122H303.265C303.265 67.6972 302.678 69.2798 301.621 70.3906L302.345 71.0802L303.069 71.7699C304.571 70.1926 305.265 68.0633 305.265 65.5122H304.265ZM302.345 71.0802L301.625 70.3856C299.908 72.1647 297.877 73.7054 295.525 75.005L296.009 75.8802L296.492 76.7555C299.005 75.367 301.198 73.7077 303.064 71.7748L302.345 71.0802ZM296.009 75.8802L295.533 75.0005C293.311 76.2017 290.947 76.8002 288.425 76.8002V77.8002V78.8002C291.279 78.8002 293.97 78.1188 296.484 76.7599L296.009 75.8802ZM288.425 77.8002V76.8002C285.196 76.8002 282.889 75.9797 281.343 74.4884L280.649 75.2082L279.955 75.9281C281.992 77.8928 284.87 78.8002 288.425 78.8002V77.8002ZM280.649 75.2082L281.356 74.5011C279.853 72.9981 279.057 70.937 279.057 68.2002H278.057H277.057C277.057 71.3514 277.989 73.9624 279.942 75.9153L280.649 75.2082ZM278.057 68.2002H279.057C279.057 67.3074 279.146 66.4131 279.325 65.5163L278.345 65.3202L277.364 65.1241C277.16 66.1474 277.057 67.1731 277.057 68.2002H278.057ZM278.345 65.3202L279.34 65.4197C279.467 64.1464 279.537 63.2339 279.537 62.7282H278.537H277.537C277.537 63.1186 277.478 63.934 277.35 65.2207L278.345 65.3202ZM278.537 62.7282H279.537C279.537 62.1327 279.44 61.5089 279.097 61.0097C278.707 60.4429 278.111 60.1922 277.481 60.1922V61.1922V62.1922C277.535 62.1922 277.535 62.2019 277.507 62.188C277.473 62.172 277.453 62.1489 277.449 62.1428C277.449 62.1426 277.455 62.1514 277.464 62.1736C277.473 62.196 277.485 62.2303 277.496 62.2796C277.519 62.3803 277.537 62.5263 277.537 62.7282H278.537ZM277.481 61.1922V60.1922C276.641 60.1922 275.851 60.6529 275.153 61.2463C274.43 61.8614 273.657 62.7462 272.835 63.8638L273.641 64.4562L274.446 65.0486C275.225 63.9902 275.892 63.2431 276.448 62.7702C277.03 62.2756 277.36 62.1922 277.481 62.1922V61.1922ZM273.641 64.4562L272.832 63.8681C271.239 66.0591 269.669 68.9458 268.116 72.5043L269.033 72.9042L269.949 73.3042C271.469 69.8227 272.971 67.0774 274.449 65.0444L273.641 64.4562ZM269.033 72.9042L268.116 72.5043C266.556 76.0787 265.291 79.8448 264.318 83.8014L265.289 84.0402L266.26 84.279C267.207 80.4276 268.437 76.7697 269.949 73.3042L269.033 72.9042ZM265.289 84.0402L264.315 83.8123C263.615 86.8024 262.826 88.6349 262.043 89.5226L262.793 90.1842L263.543 90.8459C264.679 89.5575 265.554 87.2941 266.262 84.2681L265.289 84.0402ZM262.793 90.1842L262.04 89.5257C261.408 90.2485 260.303 90.7202 258.473 90.7202V91.7202V92.7202C260.61 92.7202 262.386 92.168 263.545 90.8427L262.793 90.1842ZM297.648 87.4002L298.421 86.7651V86.7651L297.648 87.4002ZM297.648 61.5762L298.535 62.0384L298.538 62.0333L297.648 61.5762ZM307.056 50.5362L307.632 51.3536L307.635 51.3517L307.056 50.5362ZM322.416 47.1762L321.627 47.7902L321.665 47.8393L321.709 47.8833L322.416 47.1762ZM323.664 50.0562L322.689 50.2779L322.903 51.2192L323.851 51.0386L323.664 50.0562ZM331.152 62.6322L332.133 62.8284L332.135 62.8188L331.152 62.6322ZM329.616 80.2962L328.827 80.9102L328.847 80.9361L328.869 80.9606L329.616 80.2962ZM335.952 78.8562L336.617 79.6036L336.624 79.5969L336.632 79.59L335.952 78.8562ZM342.96 71.1762L342.201 70.5254L342.193 70.5347L342.96 71.1762ZM347.472 70.9842L346.608 71.4881L346.624 71.514L346.64 71.5389L347.472 70.9842ZM346.416 80.1042L345.659 79.4506L345.648 79.4639L345.637 79.4777L346.416 80.1042ZM338.064 88.3602L338.67 89.1561V89.1561L338.064 88.3602ZM323.664 89.6082L323.016 90.3695L323.031 90.3823L323.046 90.3946L323.664 89.6082ZM319.728 83.6562L320.669 83.3184L319.969 81.3673L318.878 83.1299L319.728 83.6562ZM314.64 79.5282L313.848 78.9185V78.9185L314.64 79.5282ZM317.424 72.9042L318.403 73.1091L318.405 73.1014L317.424 72.9042ZM320.976 55.2402L321.957 55.4374L322.203 54.2107L320.952 54.2405L320.976 55.2402ZM313.488 58.3122L314.139 59.0715L314.141 59.07L313.488 58.3122ZM308.112 65.9922L309.034 66.3795V66.3795L308.112 65.9922ZM307.248 80.5842L306.467 81.2089L306.48 81.2243L306.493 81.2392L307.248 80.5842ZM307.152 91.7202V90.7202C303.461 90.7202 300.585 89.3976 298.421 86.7651L297.648 87.4002L296.876 88.0353C299.447 91.1628 302.907 92.7202 307.152 92.7202V91.7202ZM297.648 87.4002L298.421 86.7651C296.234 84.1056 295.096 80.5727 295.096 76.0722H294.096H293.096C293.096 80.9158 294.327 84.9349 296.876 88.0353L297.648 87.4002ZM294.096 76.0722H295.096C295.096 71.1133 296.241 66.4398 298.535 62.0384L297.648 61.5762L296.761 61.1141C294.319 65.8007 293.096 70.7912 293.096 76.0722H294.096ZM297.648 61.5762L298.538 62.0333C300.838 57.5565 303.871 54.0048 307.632 51.3536L307.056 50.5362L306.48 49.7189C302.433 52.5717 299.194 56.38 296.759 61.1192L297.648 61.5762ZM307.056 50.5362L307.635 51.3517C311.452 48.643 315.445 47.3122 319.632 47.3122V46.3122V45.3122C314.988 45.3122 310.597 46.7975 306.478 49.7207L307.056 50.5362ZM319.632 46.3122V47.3122C320.995 47.3122 321.486 47.6091 321.627 47.7902L322.416 47.1762L323.206 46.5623C322.45 45.5914 321.085 45.3122 319.632 45.3122V46.3122ZM322.416 47.1762L321.709 47.8833C322.01 48.1839 322.377 48.9033 322.689 50.2779L323.664 50.0562L324.639 49.8346C324.312 48.3932 323.847 47.1925 323.123 46.4691L322.416 47.1762ZM323.664 50.0562L323.851 51.0386C325.129 50.7952 326.474 50.6722 327.888 50.6722V49.6722V48.6722C326.358 48.6722 324.887 48.8053 323.477 49.0739L323.664 50.0562ZM327.888 49.6722V50.6722C329.367 50.6722 330.297 50.9418 330.835 51.326C331.311 51.6658 331.592 52.1751 331.592 53.0322H332.592H333.592C333.592 51.6494 333.09 50.4786 331.997 49.6985C330.967 48.9627 329.545 48.6722 327.888 48.6722V49.6722ZM332.592 53.0322H331.592C331.592 54.2615 331.136 57.3576 330.17 62.4457L331.152 62.6322L332.135 62.8188C333.089 57.7949 333.592 54.491 333.592 53.0322H332.592ZM331.152 62.6322L330.172 62.4361C328.701 69.7899 327.944 75.0005 327.944 77.9922H328.944H329.944C329.944 75.224 330.66 70.1945 332.133 62.8283L331.152 62.6322ZM328.944 77.9922H327.944C327.944 79.1043 328.205 80.1102 328.827 80.9102L329.616 80.2962L330.406 79.6823C330.132 79.3303 329.944 78.8002 329.944 77.9922H328.944ZM329.616 80.2962L328.869 80.9606C329.57 81.7492 330.482 82.1602 331.536 82.1602V81.1602V80.1602C331.055 80.1602 330.687 79.9952 330.364 79.6319L329.616 80.2962ZM331.536 81.1602V82.1602C333.139 82.1602 334.85 81.174 336.617 79.6036L335.952 78.8562L335.288 78.1088C333.599 79.6105 332.366 80.1602 331.536 80.1602V81.1602ZM335.952 78.8562L336.632 79.59C338.408 77.9455 340.777 75.346 343.727 71.8178L342.96 71.1762L342.193 70.5347C339.256 74.0465 336.953 76.5669 335.273 78.1225L335.952 78.8562ZM342.96 71.1762L343.72 71.827C344.345 71.0973 344.95 70.8322 345.552 70.8322V69.8322V68.8322C344.235 68.8322 343.112 69.4632 342.201 70.5254L342.96 71.1762ZM345.552 69.8322V70.8322C346 70.8322 346.325 71.0016 346.608 71.4881L347.472 70.9842L348.336 70.4804C347.724 69.4309 346.769 68.8322 345.552 68.8322V69.8322ZM347.472 70.9842L346.64 71.5389C347.003 72.0836 347.24 72.9202 347.24 74.1522H348.24H349.24C349.24 72.6963 348.965 71.4208 348.304 70.4295L347.472 70.9842ZM348.24 74.1522H347.24C347.24 76.5625 346.668 78.2825 345.659 79.4506L346.416 80.1042L347.173 80.7579C348.596 79.1099 349.24 76.862 349.24 74.1522H348.24ZM346.416 80.1042L345.637 79.4777C343.057 82.6866 340.33 85.3795 337.459 87.5644L338.064 88.3602L338.67 89.1561C341.686 86.8609 344.527 84.0499 347.196 80.7308L346.416 80.1042ZM338.064 88.3602L337.459 87.5644C334.629 89.7172 331.989 90.7202 329.52 90.7202V91.7202V92.7202C332.555 92.7202 335.611 91.4833 338.67 89.1561L338.064 88.3602ZM329.52 91.7202V90.7202C327.651 90.7202 325.913 90.1032 324.282 88.8219L323.664 89.6082L323.046 90.3946C325 91.9293 327.166 92.7202 329.52 92.7202V91.7202ZM323.664 89.6082L324.313 88.847C322.738 87.5059 321.517 85.678 320.669 83.3184L319.728 83.6562L318.787 83.9941C319.732 86.6265 321.134 88.7665 323.016 90.3695L323.664 89.6082ZM319.728 83.6562L318.878 83.1299C315.68 88.2962 311.773 90.7202 307.152 90.7202V91.7202V92.7202C312.644 92.7202 317.121 89.7683 320.579 84.1826L319.728 83.6562ZM310.608 82.0242V83.0242C312.456 83.0242 314.06 81.923 315.433 80.1379L314.64 79.5282L313.848 78.9185C312.661 80.4614 311.576 81.0242 310.608 81.0242V82.0242ZM314.64 79.5282L315.433 80.1379C316.83 78.3214 317.806 75.9608 318.403 73.1091L317.424 72.9042L316.445 72.6994C315.89 75.3517 315.01 77.4071 313.848 78.9185L314.64 79.5282ZM317.424 72.9042L318.405 73.1014L321.957 55.4374L320.976 55.2402L319.996 55.0431L316.444 72.7071L317.424 72.9042ZM320.976 55.2402L320.952 54.2405C318.003 54.3107 315.291 55.4404 312.836 57.5545L313.488 58.3122L314.141 59.07C316.294 57.216 318.573 56.2977 321 56.2399L320.976 55.2402ZM313.488 58.3122L312.837 57.553C310.46 59.5906 308.584 62.2868 307.19 65.605L308.112 65.9922L309.034 66.3795C310.329 63.2977 312.036 60.8739 314.139 59.0715L313.488 58.3122ZM308.112 65.9922L307.19 65.605C305.793 68.9316 305.096 72.4557 305.096 76.1682H306.096H307.096C307.096 72.7128 307.743 69.4528 309.034 66.3795L308.112 65.9922ZM306.096 76.1682H305.096C305.096 78.2497 305.494 79.9917 306.467 81.2089L307.248 80.5842L308.029 79.9595C307.467 79.2568 307.096 78.0548 307.096 76.1682H306.096ZM307.248 80.5842L306.493 81.2392C307.536 82.4436 308.946 83.0242 310.608 83.0242V82.0242V81.0242C309.455 81.0242 308.624 80.6448 308.004 79.9293L307.248 80.5842ZM344.086 86.4402L343.366 87.1344L343.372 87.1409L343.379 87.1473L344.086 86.4402ZM341.974 58.6962L342.86 59.1608V59.1608L341.974 58.6962ZM349.942 49.6722L349.399 48.8327V48.8327L349.942 49.6722ZM368.374 49.6722L367.634 50.3449L367.645 50.3566L367.656 50.368L368.374 49.6722ZM369.526 64.4562L368.69 63.9082L368.683 63.9185L368.676 63.9289L369.526 64.4562ZM361.942 66.3762L361.309 67.1502L361.325 67.1636L361.342 67.1762L361.942 66.3762ZM361.366 61.1922L360.417 60.876L360.405 60.9124L360.396 60.9497L361.366 61.1922ZM361.174 56.5842L360.415 57.235L360.44 57.2642L360.467 57.2913L361.174 56.5842ZM355.318 57.9282L356.025 58.6353L356.034 58.6267L356.042 58.6179L355.318 57.9282ZM352.246 63.2082L351.3 62.8839V62.8839L352.246 63.2082ZM369.238 79.1442L369.736 80.0114L369.742 80.008L369.238 79.1442ZM378.262 71.1762L377.503 70.5254L377.495 70.5347L378.262 71.1762ZM382.774 70.9842L381.91 71.4881L381.925 71.514L381.942 71.5389L382.774 70.9842ZM381.718 80.1042L382.495 80.7339L382.502 80.7249L381.718 80.1042ZM370.87 88.7442L371.301 89.6469L371.306 89.6441L370.87 88.7442ZM358.774 91.7202V90.7202C352.695 90.7202 348.08 89.0198 344.793 85.7331L344.086 86.4402L343.379 87.1473C347.132 90.9007 352.309 92.7202 358.774 92.7202V91.7202ZM344.086 86.4402L344.806 85.7461C341.56 82.3799 339.902 77.9405 339.902 72.3282H338.902H337.902C337.902 78.364 339.7 83.3326 343.366 87.1344L344.086 86.4402ZM338.902 72.3282H339.902C339.902 67.2776 340.899 62.8982 342.86 59.1608L341.974 58.6962L341.088 58.2317C338.953 62.3022 337.902 67.0108 337.902 72.3282H338.902ZM341.974 58.6962L342.86 59.1608C344.839 55.3884 347.384 52.5184 350.485 50.5118L349.942 49.6722L349.399 48.8327C345.972 51.0501 343.206 54.1961 341.088 58.2317L341.974 58.6962ZM349.942 49.6722L350.485 50.5118C353.602 48.4953 356.839 47.5042 360.214 47.5042V46.5042V45.5042C356.421 45.5042 352.81 46.6252 349.399 48.8327L349.942 49.6722ZM360.214 46.5042V47.5042C363.523 47.5042 365.947 48.4886 367.634 50.3449L368.374 49.6722L369.114 48.9996C366.962 46.6319 363.945 45.5042 360.214 45.5042V46.5042ZM368.374 49.6722L367.656 50.368C369.433 52.2022 370.35 54.5953 370.35 57.6402H371.35H372.35C372.35 54.1571 371.283 51.2382 369.092 48.9764L368.374 49.6722ZM371.35 57.6402H370.35C370.35 60.1751 369.778 62.2467 368.69 63.9082L369.526 64.4562L370.362 65.0043C371.706 62.9538 372.35 60.4814 372.35 57.6402H371.35ZM369.526 64.4562L368.676 63.9289C367.677 65.5389 366.439 66.2402 364.918 66.2402V67.2402V68.2402C367.237 68.2402 369.071 67.0856 370.376 64.9836L369.526 64.4562ZM364.918 67.2402V66.2402C363.86 66.2402 363.095 65.9913 362.542 65.5762L361.942 66.3762L361.342 67.1762C362.325 67.9132 363.544 68.2402 364.918 68.2402V67.2402ZM361.942 66.3762L362.575 65.6023C362.134 65.2416 361.886 64.7429 361.886 63.9762H360.886H359.886C359.886 65.2576 360.342 66.3589 361.309 67.1502L361.942 66.3762ZM360.886 63.9762H361.886C361.886 63.62 361.937 63.183 362.054 62.6572L361.078 62.4402L360.102 62.2233C359.963 62.8495 359.886 63.4365 359.886 63.9762H360.886ZM361.078 62.4402L362.054 62.6572C362.182 62.0819 362.276 61.677 362.336 61.4348L361.366 61.1922L360.396 60.9497C360.328 61.2195 360.23 61.6465 360.102 62.2233L361.078 62.4402ZM361.366 61.1922L362.315 61.5085C362.662 60.4678 362.846 59.4641 362.846 58.5042H361.846H360.846C360.846 59.2084 360.71 59.9967 360.417 60.876L361.366 61.1922ZM361.846 58.5042H362.846C362.846 57.4933 362.57 56.5659 361.881 55.8771L361.174 56.5842L360.467 57.2913C360.674 57.4985 360.846 57.8512 360.846 58.5042H361.846ZM361.174 56.5842L361.933 55.9334C361.306 55.2011 360.412 54.9122 359.446 54.9122V55.9122V56.9122C360.016 56.9122 360.274 57.0713 360.415 57.235L361.174 56.5842ZM359.446 55.9122V54.9122C357.633 54.9122 356.01 55.7513 354.594 57.2386L355.318 57.9282L356.042 58.6179C357.186 57.4172 358.315 56.9122 359.446 56.9122V55.9122ZM355.318 57.9282L354.611 57.2211C353.195 58.6368 352.103 60.5425 351.3 62.8839L352.246 63.2082L353.192 63.5326C353.925 61.394 354.881 59.7797 356.025 58.6353L355.318 57.9282ZM352.246 63.2082L351.3 62.8839C350.492 65.2414 350.094 67.8166 350.094 70.6002H351.094H352.094C352.094 68.0079 352.464 65.6551 353.192 63.5326L352.246 63.2082ZM351.094 70.6002H350.094C350.094 74.435 350.926 77.4978 352.764 79.6089C354.625 81.7464 357.365 82.7362 360.79 82.7362V81.7362V80.7362C357.751 80.7362 355.643 79.8701 354.272 78.2956C352.878 76.6946 352.094 74.1895 352.094 70.6002H351.094ZM360.79 81.7362V82.7362C363.636 82.7362 366.624 81.7992 369.736 80.0113L369.238 79.1442L368.74 78.2771C365.836 79.9452 363.192 80.7362 360.79 80.7362V81.7362ZM369.238 79.1442L369.742 80.008C372.938 78.1436 376.031 75.4021 379.029 71.8178L378.262 71.1762L377.495 70.5347C374.605 73.9904 371.682 76.5609 368.734 78.2805L369.238 79.1442ZM378.262 71.1762L379.021 71.827C379.647 71.0973 380.252 70.8322 380.854 70.8322V69.8322V68.8322C379.536 68.8322 378.413 69.4632 377.503 70.5254L378.262 71.1762ZM380.854 69.8322V70.8322C381.302 70.8322 381.626 71.0016 381.91 71.4881L382.774 70.9842L383.638 70.4804C383.026 69.4309 382.07 68.8322 380.854 68.8322V69.8322ZM382.774 70.9842L381.942 71.5389C382.305 72.0836 382.542 72.9202 382.542 74.1522H383.542H384.542C384.542 72.6963 384.267 71.4208 383.606 70.4295L382.774 70.9842ZM383.542 74.1522H382.542C382.542 76.4146 381.979 78.1634 380.934 79.4835L381.718 80.1042L382.502 80.7249C383.889 78.9731 384.542 76.7538 384.542 74.1522H383.542ZM381.718 80.1042L380.941 79.4746C378.024 83.0748 374.523 85.8616 370.434 87.8444L370.87 88.7442L371.306 89.6441C375.665 87.5309 379.396 84.5577 382.495 80.7338L381.718 80.1042ZM370.87 88.7442L370.44 87.8416C366.39 89.773 362.505 90.7202 358.774 90.7202V91.7202V92.7202C362.852 92.7202 367.03 91.6835 371.3 89.6468L370.87 88.7442ZM416.582 81.2562L416.773 80.2747V80.2747L416.582 81.2562ZM418.31 89.8962L418.963 90.6531L418.966 90.6508L418.31 89.8962ZM400.838 87.4962L400.131 88.2033L400.139 88.2112L400.147 88.2189L400.838 87.4962ZM400.358 70.8882L400.749 71.8086L400.754 71.8063L400.358 70.8882ZM406.406 67.0482L407.147 67.7191L407.155 67.7106L407.163 67.7019L406.406 67.0482ZM407.462 59.3682L406.672 59.9822L406.693 60.0081L406.714 60.0326L407.462 59.3682ZM399.974 62.2482L399.21 61.6023L399.206 61.6081L399.201 61.6139L399.974 62.2482ZM394.214 71.9442L395.123 72.3614L395.125 72.3558L394.214 71.9442ZM389.99 84.0402L389.019 83.8012L389.016 83.8123L389.99 84.0402ZM387.494 90.1842L386.744 89.5226L386.741 89.5257L387.494 90.1842ZM378.758 89.6082L377.904 90.1282L377.917 90.1502L377.932 90.1716L378.758 89.6082ZM376.934 82.8882L375.939 82.994V82.994L376.934 82.8882ZM379.43 38.8242L378.448 38.636L378.447 38.6417L379.43 38.8242ZM388.358 11.9442L387.479 11.4665L387.478 11.4692L388.358 11.9442ZM409.67 4.84023L408.851 5.41369L408.859 5.42543L408.867 5.43694L409.67 4.84023ZM406.79 34.7922L407.667 35.2717L407.669 35.2683L406.79 34.7922ZM388.358 59.0802L387.621 58.4043L387.38 58.6669L387.359 59.0226L388.358 59.0802ZM388.07 69.3522H387.07L389.003 69.7107L388.07 69.3522ZM398.63 51.9762L399.3 52.7184L399.307 52.7124L398.63 51.9762ZM417.446 49.7682L416.696 50.4299L416.701 50.436L416.707 50.442L417.446 49.7682ZM408.518 75.4002L408.05 74.5164L407.391 74.8653L407.537 75.5964L408.518 75.4002ZM410.822 79.4322L410.267 80.2643L410.293 80.2818L410.321 80.2977L410.822 79.4322ZM396.71 15.4962L397.628 15.8923L397.631 15.8859L396.71 15.4962ZM392.582 28.8402L391.609 28.6081L391.607 28.6162L392.582 28.8402ZM389.414 47.0802L388.422 46.955L388.001 50.2885L390.176 47.7276L389.414 47.0802ZM399.206 31.8162L398.303 31.3859L398.299 31.3945L399.206 31.8162ZM402.47 12.1362L403.394 11.7555V11.7555L402.47 12.1362ZM416.582 81.2562L416.39 82.2377C417.568 82.4676 418.329 82.8822 418.795 83.3937C419.248 83.8917 419.518 84.5849 419.518 85.5762H420.518H421.518C421.518 84.1995 421.131 82.9888 420.273 82.0467C419.427 81.1183 418.219 80.5569 416.773 80.2747L416.582 81.2562ZM420.518 85.5762H419.518C419.518 86.8242 418.959 88.0062 417.654 89.1416L418.31 89.8962L418.966 90.6508C420.604 89.2263 421.518 87.5283 421.518 85.5762H420.518ZM418.31 89.8962L417.656 89.1394C416.496 90.1414 414.719 90.7202 412.166 90.7202V91.7202V92.7202C414.989 92.7202 417.308 92.083 418.963 90.6531L418.31 89.8962ZM412.166 91.7202V90.7202C407.779 90.7202 404.262 89.3878 401.529 86.7736L400.838 87.4962L400.147 88.2189C403.301 91.2366 407.337 92.7202 412.166 92.7202V91.7202ZM400.838 87.4962L401.545 86.7891C398.878 84.1219 397.518 80.645 397.518 76.2642H396.518H395.518C395.518 81.0995 397.038 85.1106 400.131 88.2033L400.838 87.4962ZM396.518 76.2642H397.518C397.518 75.1957 397.788 74.3338 398.292 73.6295C398.8 72.918 399.594 72.2993 400.749 71.8086L400.358 70.8882L399.967 69.9679C398.561 70.5651 397.436 71.3865 396.664 72.467C395.887 73.5547 395.518 74.8367 395.518 76.2642H396.518ZM400.358 70.8882L400.754 71.8063C403.623 70.5676 405.791 69.2184 407.147 67.7191L406.406 67.0482L405.664 66.3773C404.589 67.566 402.725 68.7769 399.961 69.9702L400.358 70.8882ZM406.406 67.0482L407.163 67.7019C408.546 66.0995 409.23 64.1669 409.23 61.9602H408.23H407.23C407.23 63.7215 406.697 65.1809 405.649 66.3946L406.406 67.0482ZM408.23 61.9602H409.23C409.23 60.6812 408.948 59.5351 408.209 58.7039L407.462 59.3682L406.714 60.0326C406.999 60.3533 407.23 60.9353 407.23 61.9602H408.23ZM407.462 59.3682L408.251 58.7543C407.622 57.9451 406.759 57.5042 405.734 57.5042V58.5042V59.5042C406.116 59.5042 406.406 59.6394 406.672 59.9822L407.462 59.3682ZM405.734 58.5042V57.5042C403.535 57.5042 401.357 59.065 399.21 61.6023L399.974 62.2482L400.737 62.8942C402.814 60.4394 404.476 59.5042 405.734 59.5042V58.5042ZM399.974 62.2482L399.201 61.6139C397.082 64.1967 395.119 67.5105 393.302 71.5326L394.214 71.9442L395.125 72.3558C396.893 68.442 398.77 65.2918 400.747 62.8826L399.974 62.2482ZM394.214 71.9442L393.305 71.5271C391.487 75.4882 390.058 79.5798 389.019 83.8012L389.99 84.0402L390.961 84.2793C391.97 80.1806 393.357 76.2083 395.123 72.3614L394.214 71.9442ZM389.99 84.0402L389.016 83.8123C388.316 86.8024 387.527 88.6349 386.744 89.5226L387.494 90.1842L388.244 90.8459C389.38 89.5575 390.255 87.2941 390.963 84.2681L389.99 84.0402ZM387.494 90.1842L386.741 89.5257C386.109 90.2485 385.004 90.7202 383.174 90.7202V91.7202V92.7202C385.311 92.7202 387.087 92.168 388.246 90.8427L387.494 90.1842ZM383.174 91.7202V90.7202C381.458 90.7202 380.325 90.1317 379.584 89.0449L378.758 89.6082L377.932 90.1716C379.111 91.9008 380.922 92.7202 383.174 92.7202V91.7202ZM378.758 89.6082L379.612 89.0883C378.83 87.8041 378.243 85.7384 377.928 82.7824L376.934 82.8882L375.939 82.994C376.265 86.054 376.893 88.4684 377.904 90.1282L378.758 89.6082ZM376.934 82.8882L377.928 82.7824C377.614 79.8283 377.454 75.4548 377.454 69.6402H376.454H375.454C375.454 75.4736 375.614 79.9321 375.939 82.994L376.934 82.8882ZM376.454 69.6402H377.454C377.454 59.8513 378.439 49.6406 380.413 39.0067L379.43 38.8242L378.447 38.6417C376.453 49.3838 375.454 59.7171 375.454 69.6402H376.454ZM379.43 38.8242L380.412 39.0124C382.447 28.3942 385.395 19.5377 389.238 12.4193L388.358 11.9442L387.478 11.4692C383.512 18.8148 380.509 27.8782 378.448 38.636L379.43 38.8242ZM388.358 11.9442L389.236 12.422C393.127 5.26824 397.595 2.00023 402.566 2.00023V1.00023V0.000228882C396.528 0.000228882 391.525 4.02822 387.479 11.4665L388.358 11.9442ZM402.566 1.00023V2.00023C405.16 2.00023 407.232 3.10163 408.851 5.41369L409.67 4.84023L410.489 4.26677C408.523 1.45883 405.859 0.000228882 402.566 0.000228882V1.00023ZM409.67 4.84023L408.867 5.43694C410.562 7.71544 411.454 10.7514 411.454 14.6322H412.454H413.454C413.454 10.4491 412.49 6.95702 410.472 4.24353L409.67 4.84023ZM412.454 14.6322H411.454C411.454 20.8963 409.625 27.4536 405.91 34.3162L406.79 34.7922L407.669 35.2683C411.507 28.1789 413.454 21.2962 413.454 14.6322H412.454ZM406.79 34.7922L405.912 34.3128C402.191 41.1246 396.107 49.1529 387.621 58.4043L388.358 59.0802L389.095 59.7562C397.633 50.4476 403.837 42.2839 407.667 35.2717L406.79 34.7922ZM388.358 59.0802L387.359 59.0226C387.166 62.3708 387.07 65.8141 387.07 69.3522H388.07H389.07C389.07 65.8504 389.165 62.4456 389.356 59.1378L388.358 59.0802ZM388.07 69.3522L389.003 69.7107C392.049 61.7785 395.499 56.152 399.3 52.7183L398.63 51.9762L397.959 51.2341C393.825 54.9685 390.234 60.9259 387.136 68.9938L388.07 69.3522ZM398.63 51.9762L399.307 52.7124C403.189 49.1428 406.669 47.5042 409.766 47.5042V46.5042V45.5042C405.951 45.5042 402.006 47.5136 397.953 51.2401L398.63 51.9762ZM409.766 46.5042V47.5042C412.712 47.5042 414.987 48.4926 416.696 50.4299L417.446 49.7682L418.196 49.1066C416.065 46.6919 413.22 45.5042 409.766 45.5042V46.5042ZM417.446 49.7682L416.707 50.442C418.508 52.4171 419.422 54.858 419.422 57.8322H420.422H421.422C421.422 54.4065 420.352 51.4713 418.185 49.0945L417.446 49.7682ZM420.422 57.8322H419.422C419.422 61.1729 418.574 64.2244 416.88 67.0083L417.734 67.5282L418.588 68.0482C420.477 64.944 421.422 61.5315 421.422 57.8322H420.422ZM417.734 67.5282L416.88 67.0083C415.213 69.7462 412.307 72.2626 408.05 74.5164L408.518 75.4002L408.986 76.284C413.432 73.9299 416.671 71.1983 418.588 68.0482L417.734 67.5282ZM408.518 75.4002L407.537 75.5964C407.951 77.6675 408.817 79.2973 410.267 80.2643L410.822 79.4322L411.376 78.6002C410.523 78.0312 409.852 76.973 409.498 75.2041L408.518 75.4002ZM410.822 79.4322L410.321 80.2977C411.684 81.087 413.737 81.72 416.39 82.2377L416.582 81.2562L416.773 80.2747C414.178 79.7684 412.391 79.1854 411.323 78.5668L410.822 79.4322ZM400.55 10.5042V9.50423C399.483 9.50423 398.615 10.256 397.933 11.1425C397.217 12.0736 396.506 13.4118 395.789 15.1066L396.71 15.4962L397.631 15.8859C398.322 14.2527 398.955 13.0949 399.518 12.3619C400.116 11.5845 400.465 11.5042 400.55 11.5042V10.5042ZM396.71 15.4962L395.792 15.1001C394.351 18.4396 392.959 22.9502 391.609 28.6081L392.582 28.8402L393.554 29.0723C394.892 23.4663 396.253 19.0809 397.628 15.8923L396.71 15.4962ZM392.582 28.8402L391.607 28.6162C390.319 34.2216 389.257 40.335 388.422 46.955L389.414 47.0802L390.406 47.2055C391.234 40.6415 392.285 34.5949 393.556 29.0643L392.582 28.8402ZM389.414 47.0802L390.176 47.7276C394.201 42.9879 397.514 37.8241 400.112 32.238L399.206 31.8162L398.299 31.3945C395.777 36.8164 392.562 41.8286 388.652 46.4329L389.414 47.0802ZM399.206 31.8162L400.108 32.2466C402.775 26.6541 404.142 21.5128 404.142 16.8402H403.142H402.142C402.142 21.1277 400.885 25.9704 398.303 31.3859L399.206 31.8162ZM403.142 16.8402H404.142C404.142 14.744 403.916 13.0223 403.394 11.7555L402.47 12.1362L401.545 12.517C401.919 13.4262 402.142 14.8405 402.142 16.8402H403.142ZM402.47 12.1362L403.394 11.7555C402.868 10.4766 401.954 9.50423 400.55 9.50423V10.5042V11.5042C400.809 11.5042 401.176 11.6198 401.545 12.517L402.47 12.1362Z" fill="white" fill-opacity="0.1" mask="url(#path-1-outside-1_2001_77)"/>
</svg>
