<svg width="420" height="96" viewBox="0 0 420 96" fill="none" xmlns="http://www.w3.org/2000/svg">
<path d="M81.408 28.8C81.408 34.24 79.488 38.944 75.648 42.912C71.808 46.816 66.208 49.632 58.848 51.36C62.816 52.448 65.824 54.24 67.872 56.736C69.92 59.168 70.944 61.984 70.944 65.184C70.944 70.24 69.344 74.624 66.144 78.336C63.008 82.048 58.4 84.928 52.32 86.976C46.24 88.96 38.912 89.952 30.336 89.952C27.136 89.952 24.576 89.856 22.656 89.664C22.592 91.456 21.824 92.8 20.352 93.696C18.88 94.592 16.992 95.04 14.688 95.04C12.384 95.04 10.784 94.528 9.88802 93.504C9.05602 92.48 8.70402 90.976 8.83202 88.992C9.40802 80.032 10.528 70.656 12.192 60.864C13.856 51.008 15.968 41.504 18.528 32.352C18.976 30.752 19.872 29.632 21.216 28.992C22.56 28.352 24.32 28.032 26.496 28.032C30.4 28.032 32.352 29.12 32.352 31.296C32.352 32.192 32.16 33.216 31.776 34.368C30.112 39.36 28.448 46.144 26.784 54.72C25.12 63.232 23.936 71.36 23.232 79.104C26.304 79.36 28.8 79.488 30.72 79.488C39.68 79.488 46.24 78.208 50.4 75.648C54.624 73.024 56.736 69.696 56.736 65.664C56.736 62.848 55.52 60.48 53.088 58.56C50.72 56.64 46.72 55.584 41.088 55.392C39.808 55.328 38.912 55.008 38.4 54.432C37.888 53.856 37.632 52.928 37.632 51.648C37.632 49.792 38.016 48.288 38.784 47.136C39.552 45.984 40.96 45.376 43.008 45.312C47.552 45.184 51.648 44.512 55.296 43.296C59.008 42.08 61.92 40.384 64.032 38.208C66.144 35.968 67.2 33.376 67.2 30.432C67.2 26.72 65.376 23.808 61.728 21.696C58.08 19.52 52.48 18.432 44.928 18.432C38.08 18.432 31.456 19.328 25.056 21.12C18.656 22.848 13.216 25.056 8.73602 27.744C6.68802 28.96 4.96002 29.568 3.55202 29.568C2.40002 29.568 1.50402 29.184 0.864017 28.416C0.288017 27.584 1.72257e-05 26.56 1.72257e-05 25.344C1.72257e-05 23.744 0.320017 22.368 0.960017 21.216C1.66402 20.064 3.29602 18.752 5.85602 17.28C11.232 14.208 17.536 11.808 24.768 10.08C32 8.352 39.392 7.488 46.944 7.488C58.528 7.488 67.168 9.44 72.864 13.344C78.56 17.248 81.408 22.4 81.408 28.8ZM90.0585 90.72C86.0905 90.72 82.9225 89.28 80.5545 86.4C78.1865 83.52 77.0025 79.744 77.0025 75.072C77.0025 69.952 78.1865 65.12 80.5545 60.576C82.9225 55.968 86.0585 52.288 89.9625 49.536C93.9305 46.72 98.1225 45.312 102.539 45.312C103.947 45.312 104.875 45.6 105.323 46.176C105.835 46.688 106.251 47.648 106.571 49.056C107.915 48.8 109.323 48.672 110.795 48.672C113.931 48.672 115.499 49.792 115.499 52.032C115.499 53.376 115.019 56.576 114.059 61.632C112.587 68.992 111.851 74.112 111.851 76.992C111.851 77.952 112.075 78.72 112.523 79.296C113.035 79.872 113.675 80.16 114.443 80.16C115.659 80.16 117.131 79.392 118.859 77.856C120.587 76.256 122.923 73.696 125.867 70.176C126.635 69.28 127.499 68.832 128.459 68.832C129.291 68.832 129.931 69.216 130.379 69.984C130.891 70.752 131.147 71.808 131.147 73.152C131.147 75.712 130.539 77.696 129.323 79.104C126.699 82.368 123.915 85.12 120.971 87.36C118.027 89.6 115.179 90.72 112.427 90.72C110.315 90.72 108.363 90.016 106.571 88.608C104.843 87.136 103.531 85.152 102.635 82.656C99.3065 88.032 95.1145 90.72 90.0585 90.72ZM93.5145 81.024C94.9225 81.024 96.2665 80.192 97.5465 78.528C98.8265 76.864 99.7545 74.656 100.331 71.904L103.883 54.24C101.195 54.304 98.6985 55.328 96.3945 57.312C94.1545 59.232 92.3625 61.792 91.0185 64.992C89.6745 68.192 89.0025 71.584 89.0025 75.168C89.0025 77.152 89.3865 78.624 90.1545 79.584C90.9865 80.544 92.1065 81.024 93.5145 81.024ZM141.68 90.72C135.408 90.72 130.512 88.96 126.992 85.44C123.536 81.856 121.808 77.152 121.808 71.328C121.808 66.144 122.832 61.6 124.88 57.696C126.928 53.792 129.584 50.784 132.848 48.672C136.112 46.56 139.536 45.504 143.12 45.504C146.64 45.504 149.36 46.56 151.28 48.672C153.264 50.72 154.256 53.376 154.256 56.64C154.256 59.328 153.648 61.6 152.432 63.456C151.28 65.312 149.744 66.24 147.824 66.24C146.608 66.24 145.616 65.952 144.848 65.376C144.144 64.8 143.792 64 143.792 62.976C143.792 62.528 143.856 62.016 143.984 61.44C144.112 60.864 144.208 60.448 144.272 60.192C144.592 59.232 144.752 58.336 144.752 57.504C144.752 56.672 144.528 56.032 144.08 55.584C143.696 55.136 143.12 54.912 142.352 54.912C140.88 54.912 139.504 55.584 138.224 56.928C136.944 58.208 135.92 59.968 135.152 62.208C134.384 64.448 134 66.912 134 69.6C134 77.024 137.232 80.736 143.696 80.736C146.32 80.736 149.136 79.872 152.144 78.144C155.216 76.352 158.224 73.696 161.168 70.176C161.936 69.28 162.8 68.832 163.76 68.832C164.592 68.832 165.232 69.216 165.68 69.984C166.192 70.752 166.448 71.808 166.448 73.152C166.448 75.584 165.84 77.568 164.624 79.104C161.616 82.816 158 85.696 153.776 87.744C149.616 89.728 145.584 90.72 141.68 90.72ZM214.176 68.832C215.008 68.832 215.648 69.216 216.096 69.984C216.608 70.752 216.864 71.808 216.864 73.152C216.864 75.712 216.256 77.696 215.04 79.104C212.16 82.624 209.248 85.44 206.304 87.552C203.36 89.664 199.872 90.72 195.84 90.72C190.912 90.72 186.944 89.312 183.936 86.496C180.928 83.68 179.424 79.936 179.424 75.264C179.424 72.768 180.704 70.976 183.264 69.888C186.08 68.672 188.096 67.392 189.312 66.048C190.528 64.64 191.136 62.944 191.136 60.96C191.136 59.808 190.88 58.944 190.368 58.368C189.92 57.792 189.344 57.504 188.64 57.504C186.912 57.504 184.992 58.752 182.88 61.248C180.832 63.744 178.912 66.976 177.12 70.944C175.328 74.848 173.92 78.88 172.896 83.04C172.192 86.048 171.36 88.096 170.4 89.184C169.504 90.208 168.064 90.72 166.08 90.72C164.096 90.72 162.624 90.016 161.664 88.608C160.768 87.136 160.16 84.896 159.84 81.888C159.52 78.88 159.36 74.464 159.36 68.64C159.36 58.784 160.352 48.512 162.336 37.824C164.384 27.136 167.36 18.176 171.264 10.944C175.232 3.648 179.968 0 185.472 0C188.416 0 190.784 1.28 192.576 3.84C194.432 6.336 195.36 9.6 195.36 13.632C195.36 20.096 193.472 26.816 189.696 33.792C185.92 40.704 179.776 48.8 171.264 58.08C171.072 61.408 170.976 64.832 170.976 68.352C174.048 60.352 177.568 54.56 181.536 50.976C185.504 47.328 189.216 45.504 192.672 45.504C195.872 45.504 198.432 46.592 200.352 48.768C202.336 50.944 203.328 53.632 203.328 56.832C203.328 60.352 202.432 63.584 200.64 66.528C198.848 69.472 195.776 72.096 191.424 74.4C191.68 76.128 192.448 77.536 193.728 78.624C195.072 79.648 196.672 80.16 198.528 80.16C200.512 80.16 202.432 79.392 204.288 77.856C206.144 76.32 208.576 73.76 211.584 70.176C212.352 69.28 213.216 68.832 214.176 68.832ZM183.456 9.504C182.304 9.504 181.024 11.168 179.616 14.496C178.208 17.76 176.832 22.208 175.488 27.84C174.208 33.408 173.152 39.488 172.32 46.08C176.288 41.408 179.552 36.32 182.112 30.816C184.736 25.312 186.048 20.32 186.048 15.84C186.048 13.792 185.824 12.224 185.376 11.136C184.928 10.048 184.288 9.504 183.456 9.504ZM255.785 68.832C256.617 68.832 257.257 69.216 257.705 69.984C258.217 70.752 258.473 71.808 258.473 73.152C258.473 75.712 257.865 77.696 256.649 79.104C253.897 82.496 250.889 85.28 247.625 87.456C244.361 89.632 240.617 90.72 236.393 90.72C223.337 90.72 216.809 81.536 216.809 63.168C216.809 60.352 216.905 57.504 217.097 54.624H213.353C211.433 54.624 210.121 54.272 209.417 53.568C208.777 52.864 208.457 51.744 208.457 50.208C208.457 46.624 209.897 44.832 212.777 44.832H218.249C219.337 37.792 221.001 31.36 223.241 25.536C225.481 19.712 228.169 15.072 231.305 11.616C234.505 8.16 237.929 6.432 241.577 6.432C244.265 6.432 246.377 7.616 247.913 9.984C249.449 12.352 250.217 15.328 250.217 18.912C250.217 28.832 246.057 37.472 237.737 44.832H248.489C249.513 44.832 250.249 45.056 250.697 45.504C251.145 45.952 251.369 46.784 251.369 48C251.369 52.416 247.753 54.624 240.521 54.624H228.809C228.681 57.824 228.617 60.32 228.617 62.112C228.617 68.768 229.385 73.44 230.921 76.128C232.521 78.816 235.017 80.16 238.409 80.16C241.161 80.16 243.593 79.328 245.705 77.664C247.817 76 250.313 73.504 253.193 70.176C253.961 69.28 254.825 68.832 255.785 68.832ZM238.985 15.648C238.025 15.648 236.937 16.864 235.721 19.296C234.569 21.664 233.449 24.992 232.361 29.28C231.337 33.504 230.473 38.208 229.769 43.392C233.545 40.128 236.361 36.48 238.217 32.448C240.137 28.352 241.097 24.64 241.097 21.312C241.097 17.536 240.393 15.648 238.985 15.648ZM257.473 90.72C255.041 90.72 253.313 89.44 252.289 86.88C251.329 84.32 250.849 80.224 250.849 74.592C250.849 66.272 252.033 58.368 254.401 50.88C254.977 49.024 255.905 47.68 257.185 46.848C258.529 45.952 260.385 45.504 262.753 45.504C264.033 45.504 264.929 45.664 265.441 45.984C265.953 46.304 266.209 46.912 266.209 47.808C266.209 48.832 265.729 51.136 264.769 54.72C264.129 57.28 263.617 59.52 263.233 61.44C262.849 63.36 262.529 65.728 262.273 68.544C264.385 63.04 266.753 58.56 269.377 55.104C272.001 51.648 274.561 49.184 277.057 47.712C279.617 46.24 281.953 45.504 284.065 45.504C288.225 45.504 290.305 47.584 290.305 51.744C290.305 52.576 290.017 54.592 289.441 57.792C288.929 60.352 288.673 61.952 288.673 62.592C288.673 64.832 289.473 65.952 291.073 65.952C292.865 65.952 295.169 64.544 297.985 61.728C298.817 60.896 299.681 60.48 300.577 60.48C301.409 60.48 302.049 60.864 302.497 61.632C303.009 62.336 303.265 63.296 303.265 64.512C303.265 66.88 302.625 68.736 301.345 70.08C299.553 71.936 297.441 73.536 295.009 74.88C292.641 76.16 290.113 76.8 287.425 76.8C284.033 76.8 281.441 75.936 279.649 74.208C277.921 72.48 277.057 70.144 277.057 67.2C277.057 66.24 277.153 65.28 277.345 64.32C277.473 63.04 277.537 62.176 277.537 61.728C277.537 60.704 277.185 60.192 276.481 60.192C275.521 60.192 274.241 61.28 272.641 63.456C271.105 65.568 269.569 68.384 268.033 71.904C266.497 75.424 265.249 79.136 264.289 83.04C263.585 86.048 262.753 88.096 261.793 89.184C260.897 90.208 259.457 90.72 257.473 90.72ZM306.152 90.72C302.184 90.72 299.016 89.28 296.648 86.4C294.28 83.52 293.096 79.744 293.096 75.072C293.096 69.952 294.28 65.12 296.648 60.576C299.016 55.968 302.152 52.288 306.056 49.536C310.024 46.72 314.216 45.312 318.632 45.312C320.04 45.312 320.968 45.6 321.416 46.176C321.928 46.688 322.344 47.648 322.664 49.056C324.008 48.8 325.416 48.672 326.888 48.672C330.024 48.672 331.592 49.792 331.592 52.032C331.592 53.376 331.112 56.576 330.152 61.632C328.68 68.992 327.944 74.112 327.944 76.992C327.944 77.952 328.168 78.72 328.616 79.296C329.128 79.872 329.768 80.16 330.536 80.16C331.752 80.16 333.224 79.392 334.952 77.856C336.68 76.256 339.016 73.696 341.96 70.176C342.728 69.28 343.592 68.832 344.552 68.832C345.384 68.832 346.024 69.216 346.472 69.984C346.984 70.752 347.24 71.808 347.24 73.152C347.24 75.712 346.632 77.696 345.416 79.104C342.792 82.368 340.008 85.12 337.064 87.36C334.12 89.6 331.272 90.72 328.52 90.72C326.408 90.72 324.456 90.016 322.664 88.608C320.936 87.136 319.624 85.152 318.728 82.656C315.4 88.032 311.208 90.72 306.152 90.72ZM309.608 81.024C311.016 81.024 312.36 80.192 313.64 78.528C314.92 76.864 315.848 74.656 316.424 71.904L319.976 54.24C317.288 54.304 314.792 55.328 312.488 57.312C310.248 59.232 308.456 61.792 307.112 64.992C305.768 68.192 305.096 71.584 305.096 75.168C305.096 77.152 305.48 78.624 306.248 79.584C307.08 80.544 308.2 81.024 309.608 81.024ZM357.774 90.72C351.502 90.72 346.606 88.96 343.086 85.44C339.63 81.856 337.902 77.152 337.902 71.328C337.902 66.144 338.926 61.6 340.974 57.696C343.022 53.792 345.678 50.784 348.942 48.672C352.206 46.56 355.63 45.504 359.214 45.504C362.734 45.504 365.454 46.56 367.374 48.672C369.358 50.72 370.35 53.376 370.35 56.64C370.35 59.328 369.742 61.6 368.526 63.456C367.374 65.312 365.838 66.24 363.918 66.24C362.702 66.24 361.71 65.952 360.942 65.376C360.238 64.8 359.886 64 359.886 62.976C359.886 62.528 359.95 62.016 360.078 61.44C360.206 60.864 360.302 60.448 360.366 60.192C360.686 59.232 360.846 58.336 360.846 57.504C360.846 56.672 360.622 56.032 360.174 55.584C359.79 55.136 359.214 54.912 358.446 54.912C356.974 54.912 355.598 55.584 354.318 56.928C353.038 58.208 352.014 59.968 351.246 62.208C350.478 64.448 350.094 66.912 350.094 69.6C350.094 77.024 353.326 80.736 359.79 80.736C362.414 80.736 365.23 79.872 368.238 78.144C371.31 76.352 374.318 73.696 377.262 70.176C378.03 69.28 378.894 68.832 379.854 68.832C380.686 68.832 381.326 69.216 381.774 69.984C382.286 70.752 382.542 71.808 382.542 73.152C382.542 75.584 381.934 77.568 380.718 79.104C377.71 82.816 374.094 85.696 369.87 87.744C365.71 89.728 361.678 90.72 357.774 90.72ZM415.582 80.256C418.206 80.768 419.518 82.208 419.518 84.576C419.518 86.176 418.782 87.616 417.31 88.896C415.902 90.112 413.854 90.72 411.166 90.72C406.558 90.72 402.782 89.312 399.838 86.496C396.958 83.616 395.518 79.872 395.518 75.264C395.518 72.768 396.798 70.976 399.358 69.888C402.174 68.672 404.19 67.392 405.406 66.048C406.622 64.64 407.23 62.944 407.23 60.96C407.23 59.808 406.974 58.944 406.462 58.368C406.014 57.792 405.438 57.504 404.734 57.504C403.006 57.504 401.086 58.752 398.974 61.248C396.926 63.744 395.006 66.976 393.214 70.944C391.422 74.848 390.014 78.88 388.99 83.04C388.286 86.048 387.454 88.096 386.494 89.184C385.598 90.208 384.158 90.72 382.174 90.72C380.19 90.72 378.718 90.016 377.758 88.608C376.862 87.136 376.254 84.896 375.934 81.888C375.614 78.88 375.454 74.464 375.454 68.64C375.454 58.784 376.446 48.512 378.43 37.824C380.478 27.136 383.454 18.176 387.358 10.944C391.326 3.648 396.062 0 401.566 0C404.51 0 406.878 1.28 408.67 3.84C410.526 6.336 411.454 9.6 411.454 13.632C411.454 20.096 409.566 26.816 405.79 33.792C402.014 40.704 395.87 48.8 387.358 58.08C387.166 61.408 387.07 64.832 387.07 68.352C390.142 60.352 393.662 54.56 397.63 50.976C401.598 47.328 405.31 45.504 408.766 45.504C411.966 45.504 414.526 46.592 416.446 48.768C418.43 50.944 419.422 53.632 419.422 56.832C419.422 60.352 418.526 63.584 416.734 66.528C414.942 69.472 411.87 72.096 407.518 74.4C407.902 76.32 408.67 77.664 409.822 78.432C411.038 79.136 412.958 79.744 415.582 80.256ZM399.55 9.504C398.398 9.504 397.118 11.168 395.71 14.496C394.302 17.76 392.926 22.208 391.582 27.84C390.302 33.408 389.246 39.488 388.414 46.08C392.382 41.408 395.646 36.32 398.206 30.816C400.83 25.312 402.142 20.32 402.142 15.84C402.142 13.792 401.918 12.224 401.47 11.136C401.022 10.048 400.382 9.504 399.55 9.504Z" fill="#F6475F"/>
</svg>
