<svg width="118" height="118" viewBox="0 0 118 118" fill="none" xmlns="http://www.w3.org/2000/svg">
<mask id="mask0_40_58" style="mask-type:alpha" maskUnits="userSpaceOnUse" x="0" y="0" width="118" height="118">
<rect width="118" height="118" rx="26" fill="#D9D9D9"/>
</mask>
<g mask="url(#mask0_40_58)">
<g clip-path="url(#clip0_40_58)">
<rect width="118" height="118" fill="url(#paint0_linear_40_58)"/>
</g>
<path d="M102.328 38.56C102.328 44 100.408 48.704 96.568 52.672C92.728 56.576 87.128 59.392 79.768 61.12C83.736 62.208 86.744 64 88.792 66.496C90.84 68.928 91.864 71.744 91.864 74.944C91.864 80 90.264 84.384 87.064 88.096C83.928 91.808 79.32 94.688 73.24 96.736C67.16 98.72 59.832 99.712 51.256 99.712C48.056 99.712 45.496 99.616 43.576 99.424C43.512 101.216 42.744 102.56 41.272 103.456C39.8 104.352 37.912 104.8 35.608 104.8C33.304 104.8 31.704 104.288 30.808 103.264C29.976 102.24 29.624 100.736 29.752 98.752C30.328 89.792 31.448 80.416 33.112 70.624C34.776 60.768 36.888 51.264 39.448 42.112C39.896 40.512 40.792 39.392 42.136 38.752C43.48 38.112 45.24 37.792 47.416 37.792C51.32 37.792 53.272 38.88 53.272 41.056C53.272 41.952 53.08 42.976 52.696 44.128C51.032 49.12 49.368 55.904 47.704 64.48C46.04 72.992 44.856 81.12 44.152 88.864C47.224 89.12 49.72 89.248 51.64 89.248C60.6 89.248 67.16 87.968 71.32 85.408C75.544 82.784 77.656 79.456 77.656 75.424C77.656 72.608 76.44 70.24 74.008 68.32C71.64 66.4 67.64 65.344 62.008 65.152C60.728 65.088 59.832 64.768 59.32 64.192C58.808 63.616 58.552 62.688 58.552 61.408C58.552 59.552 58.936 58.048 59.704 56.896C60.472 55.744 61.88 55.136 63.928 55.072C68.472 54.944 72.568 54.272 76.216 53.056C79.928 51.84 82.84 50.144 84.952 47.968C87.064 45.728 88.12 43.136 88.12 40.192C88.12 36.48 86.296 33.568 82.648 31.456C79 29.28 73.4 28.192 65.848 28.192C59 28.192 52.376 29.088 45.976 30.88C39.576 32.608 34.136 34.816 29.656 37.504C27.608 38.72 25.88 39.328 24.472 39.328C23.32 39.328 22.424 38.944 21.784 38.176C21.208 37.344 20.92 36.32 20.92 35.104C20.92 33.504 21.24 32.128 21.88 30.976C22.584 29.824 24.216 28.512 26.776 27.04C32.152 23.968 38.456 21.568 45.688 19.84C52.92 18.112 60.312 17.248 67.864 17.248C79.448 17.248 88.088 19.2 93.784 23.104C99.48 27.008 102.328 32.16 102.328 38.56Z" fill="white"/>
</g>
<defs>
<linearGradient id="paint0_linear_40_58" x1="118" y1="118" x2="118" y2="0" gradientUnits="userSpaceOnUse">
<stop stop-color="#F6475F"/>
<stop offset="1" stop-color="#8E44AD"/>
</linearGradient>
<clipPath id="clip0_40_58">
<rect width="118" height="118" fill="white"/>
</clipPath>
</defs>
</svg>
